<svg id="Слой_1" data-name="Слой 1" xmlns="http://www.w3.org/2000/svg" viewBox="0 0 525 550">
  <g>
    <path d="M361.08,231.87c-5.13-.19-6.54,1.16-6.53,6.44q.29,113.52.13,227c0,10.3,0,10.33-10.06,10.28-7.42,0-6.5.7-6.5-6.6q0-175.39,0-350.78c0-2.19.28-4.41-.46-6.58q-12.48-36.72-24.86-73.45c-1.46-4.35-3.22-7.86-8.61-7.79s-6.65,3.8-8,7.84c-7.45,22.45-14.82,44.93-22.54,67.29a48.88,48.88,0,0,0-3,16.37q.18,98.94.07,197.89,0,101.49,0,203c0,9.19,2.69,11.88,11.88,11.89q22.51,0,45,0c7.44,0,10.46-3.13,10.49-10.64,0-8.69.25-17.39-.1-26.07-.18-4.44,1.39-5.56,5.52-5.29,5.09.33,10.22.09,15.34.08,10.42,0,13-2.55,13-12.9V242.61C371.83,232,371.82,232.25,361.08,231.87ZM291.9,103.48Q297.92,85.21,304,67l1.06.1c3.92,11.85,7.8,23.72,11.82,35.54.86,2.5,0,3-2.23,2.94-6.81,0-13.62,0-20.42,0C292.93,105.51,291.13,105.81,291.9,103.48ZM317,517.64c-8.34-.25-16.7-.22-25,0-3.46.08-4.3-1.23-4.25-4.46.16-11.25.06-22.49.06-33.74,0-11.07.11-22.15-.06-33.22-.05-3.28.87-4.51,4.3-4.42,8.17.21,16.36.28,24.53,0,3.77-.15,4.74,1.51,4.76,4.69,0,6,.14,11.92.14,17.88,0,16.19-.07,32.37.08,48.56C321.56,516.33,320.75,517.75,317,517.64Zm4.44-295.7q0,98.4.11,196.81c0,5-1.05,7-6.45,6.66a198.78,198.78,0,0,0-22,0c-4.25.19-5.49-1.13-5.46-5.41.18-28.28.09-56.57.09-84.86V273.77c0-48.39.06-96.78-.09-145.18,0-4.52.95-6.3,5.84-6a178.94,178.94,0,0,0,22,0c5.18-.33,6.1,1.59,6.07,6.34C321.36,159.92,321.46,190.93,321.46,221.94Z" style="fill: #cda274"/>
    <path d="M502.56,29.86q-42.71,0-85.42,0c-9.46,0-11.62,2.3-11.62,11.86V282.07q0,120.42,0,240.85c0,9.48,2.28,11.78,11.68,11.78H501.6c10.9,0,13.29-2.35,13.29-13.13V42.43C514.89,32.58,512.28,29.88,502.56,29.86ZM491.39,517.69c-21.31-.3-42.62-.23-63.92,0-4,0-5.63-.73-5.56-5.23.29-16.18.23-32.38,0-48.56,0-3.8,1-5,4.86-4.92,10.91.25,21.82-.05,32.73.16,3.61.07,4.6-1.14,4.61-4.66.05-12.57.18-12.57-12.44-12.57-8.53,0-17.05-.1-25.57.05-3,.06-4.19-.71-4.17-4q.19-29.64,0-59.3c0-3.57,1.4-4.23,4.54-4.19,11.07.14,22.16,0,33.23.11,3.3.05,4.38-.93,4.42-4.32C464.3,358,464.43,358,452.4,358c-8.86,0-17.73-.09-26.59.05-2.84,0-3.85-.84-3.84-3.77q.16-29.91,0-59.82c0-3.18,1.06-4.07,4.12-4,11.08.14,22.16-.11,33.24.15,3.91.09,4.85-1.19,4.82-4.94-.09-11.73.06-11.73-11.79-11.73-8.69,0-17.39-.12-26.08.06-3.34.08-4.35-1-4.33-4.37q.23-29.4,0-58.79c0-3.45,1.18-4.31,4.43-4.26,10.9.17,21.82-.14,32.72.17,4.21.11,5.08-1.38,5-5.24C464,190,464.16,190,452.58,190c-8.69,0-17.39-.09-26.08.05-3.08,0-4.58-.51-4.55-4.14q.24-29.65,0-59.3c0-3.22,1.1-4.05,4.13-4,11.08.14,22.16,0,33.24.11,3.34,0,4.8-.6,4.83-4.41.08-12.81.24-12.81-12.77-12.81-8.52,0-17.05-.09-25.57,0-2.85,0-3.86-.89-3.84-3.81q.15-25.56,0-51.12c0-3,1.18-3.69,3.92-3.69q34,.12,68,0c2.79,0,4.19.72,3.86,3.72a37,37,0,0,0,0,4.08v227.5q0,114.51.13,229C497.88,516.54,496.49,517.76,491.39,517.69Z" style="fill: #cda274"/>
    <path d="M237.72,190.45C220.5,146,186.82,120,139.48,114.94c-41.41-4.46-76.3,10.74-102.95,43-21,25.45-29.49,55.31-25.44,87.81,5,39.93,25.76,70,61.34,89.33,3.88,2.11,5.11,4.38,5,8.68-.27,15.68-.1,31.36-.1,47s0,31.37,0,47c0,10.38,1.92,12.34,12.06,12.35h17.39c12.49,0,12.49,0,12.49,12.49,0,13.7,0,13.59,13.54,13,3.06-.13,3.7-1.32,3.64-4-.13-5.79.09-11.59-.09-17.38-.1-3.08.92-4.21,4.08-4.15,8.69.17,17.39.07,26.09.06,9.8,0,11.9-2.13,11.9-12,0-31.36.1-62.73-.09-94.09,0-4.61,1-7.33,5.54-9.39,8.55-3.9,16.08-9.59,23-16C243.19,285.08,255.66,236.73,237.72,190.45ZM157.45,433.67c-10-.11-20.08,0-30.12,0-9.52,0-19-.11-28.58.06-3.27.06-4.54-.88-4.39-4.3.24-5.77.15-11.56,0-17.34-.06-2.67.55-4,3.64-4q29.86.17,59.72,0c2.62,0,3.65.84,3.6,3.51-.12,6.12-.15,12.25,0,18.37C161.44,432.92,160.23,433.71,157.45,433.67Zm10.43-109.22c-4.76,2.05-6.63,5.27-6.6,10.28.1,17.38-.07,34.76.12,52.13,0,3.78-1,5-4.86,4.92-9.54-.27-19.08-.09-28.63-.09-9.71,0-19.43-.11-29.14.06-3.26.06-4.38-.86-4.43-4.28-.18-13-.31-13,12.64-13,8.52,0,17-.07,25.56,0,2.75,0,3.85-.73,4-3.72.54-12.83.64-12.83-12.18-12.83-8.52,0-17-.12-25.56.06-3.26.07-4.56-.84-4.42-4.28.24-6.13,0-12.27.09-18.4.12-5.57-2.14-8.8-7.44-11.32-33.48-15.9-53.75-42.11-58.92-79-4.67-33.28,5.92-61.91,29.53-85.42,16.27-16.21,36.23-25.31,59.27-28C170,125.45,218.41,163.12,227.44,215,235.32,260.24,210.31,306.19,167.88,324.45Z" style="fill: #cda274"/>
    <path d="M119.29,262.19c0-13.12-.1-26.25.08-39.37a10,10,0,0,0-3.41-8c-5.68-5.41-11-11.15-16.73-16.54-2.18-2.07-1.88-3.22.07-5.24,9-9.3,8.93-9.36,18.18-.11,2.66,2.65,5.4,5.22,7.93,8,1.84,2,3.23,1.8,5-.07,4.62-4.79,9.53-9.3,14-14.19,2.23-2.44,3.59-2.18,5.57.13,2.65,3.09,7.54,5.75,7.85,8.94s-4.58,6.41-7.77,8.73c-11.61,8.41-14.75,19.37-14,33.46,1.19,21.59.23,43.28.4,64.93,0,3.77-.95,4.95-4.83,4.93-12.4-.09-12.41.07-12.41-12.32Z" style="fill: #cda274"/>
  </g>
</svg>
