<svg id="Слой_1" data-name="Слой 1" xmlns="http://www.w3.org/2000/svg" viewBox="0 0 525 550">
  <g>
    <path d="M480.43,285c-9.08-1.92-9.08-1.92-9-11.43a7.21,7.21,0,0,0,0-1c-.54-3.94,1.27-5.07,5.06-5,10.4.21,20.81,0,31.21.13,3.12.05,4.38-.87,4.19-4.12a101.37,101.37,0,0,1,0-11.95c.17-3-1.1-4.67-3.44-6.36Q393.3,162.07,278.26,78.76c-1.68-1.22-3.42-3.45-5.08-3.4-9.71.29-19.49-2.44-28.64,5-14.32,11.69-29.82,21.94-45.91,33.58,0-6.86-.11-12.52,0-18.19.1-3.94-1.66-8.84.8-11.55s7.22-.8,11-.84c2.77,0,4.05-.71,4-3.78q-.18-20.28,0-40.56c0-3-1.16-3.85-4-3.85q-76.21.08-152.42,0c-3.25,0-4.13,1.15-4.09,4.24.15,10.92.06,21.84.06,32.76s0,11.2,11,11.06c3.84,0,5.44.7,5.42,5.06q-.27,57.21,0,114.42a7,7,0,0,1-3.24,6.46c-14,10-27.39,20.72-41.84,29.89-9.31,5.91-13.45,12.63-11.94,23.6.57,4.18,1.71,5.12,5.55,5,10.23-.22,20.46,0,30.69-.14,3.39-.06,4.43,1,4.42,4.43q-.17,55.9,0,111.81c0,3.38-.95,4.49-4.38,4.42-10.57-.19-21.15.07-31.72-.14-3.5-.07-4.4,1.12-4.39,4.45q.13,51.75,0,103.49c0,3.77,1.32,4.67,4.82,4.6,10.4-.18,20.8.05,31.2-.12,3.31-.06,4.62.81,4.5,4.34-.24,7.44.26,14.92-.19,22.35-.29,4.83,1.49,5.62,5.86,5.61q202.88-.16,405.74,0c4.82,0,6-1.32,6-6.05-.17-50.44-.11-100.89-.09-151.33,0-3.45-.88-7.54.66-10.15s6-1.42,9.13-2.19a40.49,40.49,0,0,0,30.58-40.2C511.56,305.07,498,288.74,480.43,285ZM70,62.11c-1-11-1.15-11,9.56-11,38,0,75.94.06,113.9-.08,4,0,5.38.87,5.28,5.11-.23,10.77,0,10.78-10.52,10.78H134.65c-19.77,0-39.53-.1-59.29.1C71.51,67,70.33,65.79,70,62.11Zm112.36,60.53a6.33,6.33,0,0,1-2.78,5.18q-45.62,33-91.23,66a10.76,10.76,0,0,1-2.12.7V133.69c0-15.24.1-30.48-.07-45.71,0-3.54.86-4.76,4.59-4.74q43.65.21,87.29,0c3.51,0,4.91.87,4.77,4.61C182.39,99.44,183.18,111,182.36,122.64ZM36.22,251.43C48.5,242.49,60,234,71.62,225.64q90-65.17,180.1-130.33c7.71-5.57,14.4-5.59,22.14,0q95.92,69.42,191.79,138.88c7.71,5.59,15.45,11.12,24,17.23Zm26,221.85c0-5.55-.16-11.1.06-16.64.13-3.24-1.09-4.06-4.19-4.12-12.27-.26-12.27-.36-12.27,12.1,0,5.2-.15,10.41,0,15.6.13,3.22-.68,4.57-4.27,4.61-11.55.12-11.54.28-11.54-11.3q0-30.93,0-61.87c0-8-.83-7.08,7.34-7.09q88.67,0,177.34,0,89.19,0,178.38-.11c4.85,0,6.49,1,6.42,6.19-.3,23.05-.21,46.1,0,69.15,0,3.79-.89,5.09-4.89,5-11.53-.11-11.53.07-11.53-11.8,0-5.55-.13-11.1,0-16.64.09-3-1.07-3.77-3.94-3.88-12-.43-12-.52-12,11.29,0,5.72-.14,11.44.05,17.15.1,3-1.08,3.75-3.93,3.84-11.94.37-11.93.46-11.93-11.45,0-5.72-.1-11.44,0-17.16.07-2.68-.9-3.52-3.59-3.67-12.86-.68-12.86-.76-12.86,12,0,5.55-.1,11.09,0,16.64.06,2.69-.93,3.5-3.61,3.63-12.19.59-12.19.67-12.19-11.7,0-5.55-.12-11.1.05-16.64.09-2.89-.88-3.84-3.84-3.94-12.61-.47-12.61-.56-12.61,11.76,0,5.55-.12,11.1.05,16.64.09,3-1.05,3.78-3.93,3.88-11.89.41-11.89.5-11.89-11.45,0-5.72-.1-11.44.05-17.16.06-2.66-.83-3.53-3.55-3.67-12.91-.66-12.9-.74-12.9,12,0,5.55-.1,11.1,0,16.64.06,2.71-1,3.49-3.67,3.63-12.18.63-12.17.71-12.17-11.15,0-5.89-.08-11.78,0-17.67,0-2.37-.69-3.27-3.22-3.45-12.71-.95-12.66-1-12.72,11.7,0,5.54-.39,11.08-.33,16.61,0,3.33-1.52,3.91-4.46,4-11.53.18-11.53.27-11.53-11.27,0-5.72-.13-11.44,0-17.15.1-3-1-3.78-3.88-3.86-12-.36-12-.46-12,11.36,0,5.72-.07,11.44,0,17.16.05,2.64-1,3.56-3.67,3.75-12.7.9-12.69,1-12.69-11.68,0-5.72-.08-11.44,0-17.16.05-2.4-.77-3.61-3.28-3.36a8.85,8.85,0,0,1-1,0c-11.55-.33-11.55-.33-11.55,11.18,0,5.72-.13,11.45,0,17.16.1,3-1,3.78-3.92,3.87-12.47.42-12.47.51-12.47-11.91,0-5.55-.09-11.1,0-16.64.05-2.6-.77-3.57-3.53-3.73-12.33-.69-12.32-.78-12.32,11.49,0,5.72-.11,11.44,0,17.16.07,2.7-.91,3.72-3.61,3.59-13.54-.64-12.32,3.37-12.74-12.06a123.87,123.87,0,0,1,.07-14.55c.45-4.83-1.49-6.19-5.89-5.61a24.24,24.24,0,0,1-5.71,0c-3.35-.36-4.56.84-4.46,4.32.24,7.62-.11,15.26.16,22.87.12,3.73-.74,5.15-4.82,5.1-11.07-.13-11.07.07-11.07-10.79,0-5.72-.18-11.45.06-17.16.15-3.47-1.12-4.36-4.48-4.38-12-.09-12-.22-12,11.84,0,5.37-.12,10.75,0,16.12.09,2.94-.58,4.27-4,4.35C62.21,485.11,62.21,485.25,62.21,473.28ZM449.35,517q-186.47-.19-372.93,0c-5.34,0-6.87-1.45-6.63-6.7.44-9.75.15-9.76,9.95-9.76H408.46c6.76,0,6.77,0,6.77-6.66,0-33.28-.09-66.57.11-99.84,0-4.77-1.26-6-6-6q-166.19.21-332.37.1c-7.73,0-7,.85-7-6.9,0-35.88.09-71.77-.11-107.64,0-4.9,1.49-6.06,6.19-6.06q187,.18,374,0c4.59,0,5.91,1.14,5.77,5.76-.32,10.77-.08,10.78-11,10.78q-137.58,0-275.15-.07a17.74,17.74,0,0,0-10.6,3.2c-18.07,12.22-36.25,24.25-55.12,36.83,19.86,13.23,39.16,26,58.38,38.95,2.29,1.53,4.62,1.18,7,1.18q139.92,0,279.83,0c7.43,0,6.55-.82,6.55,6.75,0,46.63-.08,93.26.14,139.88C455.77,516,454.23,517,449.35,517Zm-26-213.6c0-2.66.84-3.72,3.58-3.63,14,.46,12.68-2.71,12.79,11.92.09,10.72-.07,21.44.07,32.17,0,3.27-1,4.53-4.43,4.61-12,.26-12,.39-12-11.34v-13C423.4,317.25,423.48,310.34,423.35,303.42Zm-26.06,12.81H294.89c-35.35,0-70.7-.1-106,.11-4.93,0-6.66-1.37-6.66-6.31,0-10.21-.2-10.21,9.92-10.21q104.49,0,209-.12c5.1,0,6.92,1,6.66,6.48C407.23,316.21,407.59,316.23,397.29,316.23Zm10.4,21.95c-.52,11.84,1.48,10.18-10.25,10.21q-51.24.11-102.47,0c-35.54,0-71.08-.08-106.62.1-4.72,0-6.34-1.19-6.2-6.07.32-10.46.06-10.47,10.19-10.47q104.55,0,209.09-.12C406.5,331.84,407.91,333.18,407.69,338.18ZM166,302v44c-1-.56-1.77-.9-2.45-1.35-10.05-6.68-20.09-13.38-30.75-20.48Zm329.4,23.8a23.31,23.31,0,0,1-19.86,21.93c-5.17.8-10.34.51-15.51.75-3.3.16-4.62-.8-4.49-4.32.25-6.73.07-13.48.07-20.21s.11-13.48-.05-20.22c-.06-2.86.78-4.11,3.8-3.92,6,.36,12.08-.55,18.06.89C488.79,303.42,495.91,313.28,495.41,325.78Z" style="fill: #cda274"/>
    <path d="M263.82,115.48c-35.43-.29-64.91,27.94-65.18,62.4-.29,36.46,27.77,65.54,63.46,65.77,36,.23,64.53-27.83,64.77-63.78A63.58,63.58,0,0,0,263.82,115.48Zm-1.09,112.33c-26.49-.06-48.68-22.53-48.27-48.88.39-26.11,22.47-47.83,48.47-47.7A48.53,48.53,0,0,1,311,180.17C310.87,206.24,289,227.86,262.73,227.81Z" style="fill: #cda274"/>
  </g>
</svg>
