<svg id="Слой_1" data-name="Слой 1" xmlns="http://www.w3.org/2000/svg" viewBox="0 0 525 550">
  <g>
    <path d="M517.86,522.74c0,7.78,0,7.78-7.83,7.78-8.56,0-8.56,0-8.56-8.44,0-8.06,0-8.06,8-8.06C517.86,514,517.86,514,517.86,522.74Z" style="fill: #cda374"/>
    <path d="M513.56,101.91c-35.66.12-71.33,0-107,.13-2.9,0-3.85-.7-3.82-3.73.15-19.25.11-38.5.13-57.75,0-4.67,0-4.67-4.51-4.67H313.49c-13.07,0-26.15-.08-39.23.06-2.72,0-3.51-.81-3.36-3.44.21-3.56,0-7.13.07-10.7,0-1.65-.51-2.37-2.24-2.34-3.92.07-7.85.09-11.77,0-1.88-.05-2.5.71-2.45,2.52.1,3.2-.2,6.44.09,9.62.32,3.41-.77,4.38-4.27,4.37q-61.52-.19-123-.07c-5.33,0-4.68-.51-4.69,4.83q0,84.15,0,168.28v4.47a5.09,5.09,0,0,1-1.15-.13c-15.63-9-31.29-18-46.85-27.11-1.86-1.09-3.29-2.74-5.75-2.39a34.09,34.09,0,0,1-5,.29c-17.71,0-35.43.08-53.14-.06-3,0-3.74.9-3.73,3.81q.15,55.44.05,110.88a33.32,33.32,0,0,0,33.74,33.84c26-.43,52.06-.06,78.1-.18,3,0,3.81.85,3.75,3.8-.19,8.43.09,16.87-.15,25.3-.09,3.26,1,3.92,4,3.9,21.52-.12,43,0,64.55-.12,3.09,0,3.74.65,3.08,3.82-4.49,21.7-8.76,43.45-13.07,65.19q-7.59,38.21-15.07,76.43c-.45,2.32-1.58,3.26-3.8,3.23-1.18,0-2.37,0-3.56,0H12.46c-1,0-1.91.06-2.86,0-1.85-.14-2.53.7-2.47,2.52.08,3,0,5.94,0,8.91.07,5.82-.73,5.07,5.15,5.07H475.54c9.51,0,9.51,0,9.51-9.34,0-7.16,0-7.16-7.08-7.16H363.86c-2.05,0-3.87.27-4.46-2.67q-14.11-71-28.46-142c-.61-3-.16-4.1,3.3-4.08,21.16.17,42.32.1,63.48.08,5.71,0,5.09.53,5.09-5.21q0-61.15-.06-122.29c0-3,.58-4.55,3.87-4a16.93,16.93,0,0,0,2.85,0q27.82,0,55.63,0c1.53,0,3.52.64,3.45-2.17-.09-4-.08-8.08,0-12.12,0-1.84-.91-2.18-2.44-2.14-2.38.06-4.76,0-7.13,0-4.62,0-4.6,0-3.51-4.35,4.39-17.59,8.73-35.19,13.2-52.76a4.8,4.8,0,0,0-1-4.82c-4.54-5.48-8.94-11.08-13.39-16.65l-15.13-19a24.07,24.07,0,0,1,3.17.23c26.66,5.94,47.56,29.38,50.48,56.58.81,7.46.81,7.46,8.34,7.46,8.89,0,8.94,0,8-9-1.73-17.2-8.75-32.07-20-45.12-3.52-4.09-7.72-7.46-12.08-11.6h3.13c11.53,0,23.06-.06,34.59,0,2.32,0,3.17-.68,3-3a59.63,59.63,0,0,1,0-9.26C518.28,102.64,516.93,101.89,513.56,101.91ZM56.79,250.36c0,14.85.09,29.69,0,44.53-.05,4.57.18,9.29-2.54,13.43-4.12,6.26-11.32,9.18-18.18,7.29-7.44-2.06-12.39-8-12.42-15.89-.12-32.06,0-64.12-.09-96.18,0-2.42,1-3,3.19-3,8.91.08,17.82.12,26.72,0,2.73,0,3.43.94,3.41,3.52C56.74,219.49,56.79,234.93,56.79,250.36Zm57.15-12.21c2.57-2.48,3.47-2.36,5.23.69,4.57,7.89,9.08,15.82,13.69,23.69.81,1.39.94,2.17-.64,3.08Q107.13,280,82.08,294.54l-.56-.54,20.36-35.35q5.24-9.09,10.47-18.17A10.54,10.54,0,0,1,113.94,238.15ZM74,274l-.74-.15v-62a8.16,8.16,0,0,1,.82-4.12c.79-1.47,1.58-1.8,3.06-.94q12.47,7.24,25,14.39c2,1.12,1,2.28.29,3.52L78.59,266.06Zm62.56,42.15c-19.12-.06-38.25,0-57.38,0l-.22-.73,23.31-13.49,29.92-17.27a8.82,8.82,0,0,1,3.94-1.48c2.07-.12,3,.4,2.93,2.72-.11,9.15-.07,18.3,0,27.45C139,315.12,138.77,316.16,136.55,316.15ZM250.86,513.76q-32.45-.19-64.9,0c-3.24,0-3.72-1-3.13-3.94q12.79-63.74,25.43-127.48c.94-4.76,1.91-9.52,2.85-14.28.29-1.49.68-2.71,2.63-2.69,12.47.1,24.95.21,37.43.15,3,0,3.35,1.43,3.34,3.95-.07,23.41,0,46.82,0,70.23h.06c0,23.41-.05,46.82.07,70.24C254.61,512.84,253.88,513.77,250.86,513.76Zm83.62-43.53c2.68,13.47,5.28,27,8.11,40.4.54,2.56-.06,3.1-2.46,3.09-22-.05-44-.08-66,0-2.83,0-3.29-1-3.29-3.53.08-23.65.05-47.29.05-70.94,0-23.4.05-46.81-.07-70.22,0-3,.85-3.81,3.8-3.75,12,.23,24,.28,36,.25,2.44,0,3.21,1.12,3.64,3.25Q324.35,419.53,334.48,470.23Zm53-315.3a5.94,5.94,0,0,0-1.26,5.84c4.53,17.68,8.8,35.42,13.35,53.1.81,3.12-.07,3.8-2.93,3.61-2.61-.17-5.23,0-7.84,0-1.85-.07-2.64.65-2.49,2.49.08,1,0,1.9,0,2.85q0,61.16.05,122.29c0,3.06-.4,4.9-4.07,4a14.49,14.49,0,0,0-3.55-.07h-235c-4.78,0-4.78,0-4.78-4.77,0-3.09.08-6.18,0-9.27-.07-1.89.68-2.51,2.5-2.45,3.21.1,6.44-.2,9.63.09,3.35.3,4.45-.66,4.41-4.23-.2-17-.12-34-.06-51,0-2.22-.31-4.43.41-6.69A4.8,4.8,0,0,0,155,267c-6-8-10-17.18-15.34-25.56a6.52,6.52,0,0,1-.67-3.78q0-90.91,0-181.83c0-2.87.86-3.55,3.62-3.54q119.1.09,238.21.06c5.63,0,5.63,0,5.63,5.65,0,13.19-.19,26.39.05,39.57.07,3.79-1.18,4.53-4.66,4.48-13.91-.18-27.82,0-41.73-.12-2.56,0-3.68.54-3.48,3.34a67,67,0,0,1,0,9.61c-.19,2.77.65,3.67,3.53,3.63,11.05-.17,22.11-.07,33.16-.07h3.42c-6.69,6.34-12.77,12.65-17.66,20a81.35,81.35,0,0,0-14,42.35c-.11,2.71.75,3.55,3.4,3.37a92.29,92.29,0,0,1,10,0c2.21.1,3.05-.47,3.15-2.91a65.94,65.94,0,0,1,50.59-61c.79-.18,1.61-.23,2.66-.38-.14,2.06-1.62,3.06-2.57,4.26Q400,139.6,387.53,154.93Zm62.76,5.27a3.27,3.27,0,0,1,.6,3.25Q444.35,189.31,438,215.2c-.44,1.78-1.31,2.28-3,2.26-5.11-.05-10.23-.12-15.33,0-2.14.07-2.55-1.11-2.95-2.71q-6.39-25.68-12.85-51.36a3.16,3.16,0,0,1,.4-3L418.34,143c1.43.69.85,1.78.86,2.59.05,9.14.09,18.29,0,27.44,0,2.27.56,3.23,3,3.11a96.39,96.39,0,0,1,10.34,0c2.47.13,3.28-.65,3.24-3.18-.14-8.79-.05-17.58-.05-26.37v-3.44l.83-.21C441.1,148.72,445.66,154.49,450.29,160.2Z" style="fill: #cda274"/>
    <path d="M353.11,307.82c0,8.29,0,8.29-8.35,8.29-8.1,0-8.1,0-8.1-8.18s0-8.27,8.33-8.27C353.11,299.66,353.11,299.66,353.11,307.82Z" style="fill: #cda274"/>
    <path d="M179.92,102c-8,0-8,0-8-8,0-8.45,0-8.45,8.59-8.45,7.86,0,7.86,0,7.86,7.77v.35C188.35,102,188.35,102,179.92,102Z" style="fill: #cda274"/>
    <path d="M336.69,200.55a63.12,63.12,0,0,0-1.54-15.21,74.32,74.32,0,0,0-72.68-58.78A66.82,66.82,0,0,0,229,134.87c-2.65,1.48-3.78.74-5.3-1.42-6.1-8.62-12.4-17.09-18.52-25.69-1.26-1.79-2.15-2.45-4.12-.83-2.83,2.33-5.87,4.42-8.9,6.51-1.51,1-2,1.82-.71,3.62,6.45,8.65,12.59,17.53,19.15,26.1,1.86,2.43,1.39,3.51-.51,5.45-13.28,13.62-20.87,30-21.6,49-.8,21,6.16,39.49,20.81,54.67,22.9,23.7,57.29,29.39,86.75,14.61,2.38-1.19,3.63-1.35,5.37,1.16,6.08,8.77,12.57,17.26,18.76,26,1.4,2,2.35,2.05,4.14.57a74.91,74.91,0,0,1,8.35-6.06c2.15-1.33,2.28-2.4.81-4.38-6.17-8.28-12.12-16.72-18.35-25-1.94-2.57-2.3-4.11.31-6.73C329.66,238.14,336.5,220.66,336.69,200.55Zm-50.25,52.77c-7.58,3.38-15.44,5.34-23.47,5-28.59.76-56.08-22.46-57.83-53.78-.93-16.57,4.3-30.73,15.23-43,1.42-1.6,2.2-1.9,3.67.12q31.69,43.83,63.61,87.48C289.5,251.69,288.74,252.3,286.44,253.32Zm18.17-13.24a15,15,0,0,1-1.29,1.23,3.66,3.66,0,0,1-.82.34l-28.2-38.79q-18.21-25-36.47-50c-1.73-2.34-2-3.32,1.13-4.68,34.28-14.82,72.83,4.76,80.14,41.3C322.92,208.54,318,225.65,304.61,240.08Z" style="fill: #cda274"/>
  </g>
</svg>
