<svg id="Слой_1" data-name="Слой 1" xmlns="http://www.w3.org/2000/svg" viewBox="0 0 525 550">
  <g>
    <path d="M257.2,104.86c-2.68.2-3.51,1.9-4.66,3Q169.64,190,86.77,272.19c-9.9,9.81-20,19.47-29.76,29.38-2.52,2.54-3.95,3.22-6.83.19-8-8.37-8.18-8.24,0-16.29Q111.93,224.24,173.77,163q33.4-33,66.84-66c1.32-1.29,2.55-2.67,4.67-4.9H213c-13.14,0-13,0-12.89-12.94,0-2.48.65-3.4,3.12-3.39q33.31.06,66.62,0c2.57,0,3.19,1.23,3.18,3.51,0,18.24-.07,36.49,0,54.73,0,3.06-1.28,3.65-4,3.74-11.88.37-11.88.45-11.88-11.33Z" style="fill: #cda274"/>
    <path d="M501.49,22c0-4.37-1.29-5.42-5.52-5.4q-75.95.21-151.9,0c-4.41,0-5.43,1.35-5.41,5.55.18,27,.09,54.06.09,81.09,0,28.76-.06,57.51.08,86.27,0,3.81-1,5.11-4.91,4.95-7.57-.3-15.17.19-22.73-.19-4.47-.22-5.35,1.37-5.32,5.53.17,28.41-.08,56.82.24,85.23.06,5.47-1.64,6.42-6.65,6.4-42.88-.2-85.77,0-128.65-.25-5.44,0-6.48,1.6-6.43,6.65.24,27.55.13,55.1.1,82.65,0,8.06.9,7.29-7.07,7.3-42.71,0-85.42.08-128.13-.1-4.57,0-5.76,1.23-5.75,5.77q.25,66.89,0,133.78c0,5.15,1.52,6.15,6.36,6.14q106.7-.24,213.39-.11,107,0,213.9.12c5.1,0,6.17-1.45,6.16-6.33q-.21-163.23,0-326.45c0-4.85-1-6.39-6.15-6.35-32.54.25-65.09.09-97.64.17-3.2,0-5-.28-5-4.31.2-18.6.17-37.19,0-55.79,0-3.42,1.28-4.67,4.39-4.71,1.72,0,3.44-.06,5.16-.06,43.92,0,87.84-.06,131.75.08,4.12,0,5.65-.87,5.63-5.35Q501.22,73.16,501.49,22ZM180.84,328.57c.35-5.82.19-11.68,0-17.52-.07-2.78.67-4,3.73-4q58.8.12,117.62,0c3,0,3.84,1.07,3.77,3.92-.16,6.18-.26,12.38,0,18.56.18,3.79-1.35,4.53-4.78,4.5-19.25-.13-38.51-.06-57.77-.06-19.09,0-38.18-.14-57.27.1C181.84,334.14,180.59,332.81,180.84,328.57ZM44,404.06c19.29.12,38.57.06,57.86.06s38.58.11,57.86-.09c3.93,0,5.07,1.14,4.88,5-.31,6-.19,12.05,0,18.08.07,2.77-.65,4-3.72,4q-58.89-.14-117.79,0c-2.72,0-3.61-1-3.56-3.62.13-6.37.22-12.75,0-19.11C39.29,404.73,40.76,404,44,404.06ZM441.62,517q-99.19-.21-198.4-.1c-65.78,0-131.57-.07-197.36.14-5.36,0-6.57-1.49-6.49-6.63.31-19.28.21-38.56.05-57.84,0-3.85.73-5.41,5.06-5.39q57.62.25,115.22,0c4,0,5,1.27,4.86,5-.25,8.43.06,16.88-.14,25.31-.08,3.45,1.16,4.35,4.48,4.4,12,.16,12,.28,12-11.72,0-38.05.06-76.1-.1-114.15,0-4.32.77-5.88,5.56-5.86q57.09.33,114.18,0c4.23,0,5.56,1,5.49,5.39-.27,15.49,0,31-.2,46.48-.05,3.84,1,5,4.9,5,11.6-.1,11.6.07,11.6-11.6,0-45.28.08-90.56-.1-135.84,0-4.79.92-6.45,6.12-6.42q56.82.36,113.66,0c4.36,0,5.41,1.28,5.4,5.51q-.18,126.29,0,252.58C447.47,516.07,446,517.05,441.62,517ZM384.49,210.16c19.12,0,38.24.1,57.35-.09,4.22,0,5.87,1.13,5.6,5.51a140.08,140.08,0,0,0,0,16.52c.25,4.29-1.22,5.61-5.53,5.58-26.52-.17-53-.09-79.56-.09-11.88,0-23.77-.1-35.65.06-3.39,0-4.52-1.05-4.39-4.45.23-6.19.27-12.4,0-18.58-.18-3.85,1.46-4.55,4.86-4.52C346.26,210.22,365.38,210.16,384.49,210.16Zm101-105.1c0,.52,0,1,0,1.55-.4,7.15-.4,7.15-7.6,7.15-39.26,0-78.53-.06-117.79.09-4.18,0-5.58-.94-5.54-5.37q.33-35.12,0-70.23c0-4,1-5.31,5.14-5.27,20.15.21,40.3.1,60.44.1s40.3.09,60.45-.09c3.83,0,5,1,5,4.93C485.41,60.3,485.49,82.68,485.49,105.06Z" style="fill: #cda274"/>
    <path d="M423,269.77c11.08,0,10.94,0,11,11.23,0,3.71-1,5.38-4.94,5.13-4.45-.29-9-.16-13.42,0-2.9.09-4.17-1.1-3.91-4a2.9,2.9,0,0,0,0-.51C411.21,269.77,411.21,269.77,423,269.77Z" style="fill: #cea376"/>
    <path d="M64.19,463.14c11.54,0,12.28.91,11,12.39-.33,2.87-1.23,4.27-4.44,4.06a99.71,99.71,0,0,0-12.82,0c-3.26.19-4.5-1-4.83-4.2C51.86,463.88,52.46,463.14,64.19,463.14Z" style="fill: #cda375"/>
    <path d="M139.74,479.52c-10.51,0-10.28,0-10.59-10.47-.14-4.66,1.09-6.49,5.93-6a87.75,87.75,0,0,0,12.35.05c2.71-.1,3.81.95,3.53,3.59a13.36,13.36,0,0,0,0,1.55C151.06,479.52,151.06,479.52,139.74,479.52Z" style="fill: #cda375"/>
    <path d="M204.94,382.45c-10.55,0-10.28,0-10.61-10.43-.15-4.71,1.73-6,5.88-5.87s8.22.12,12.32,0c2.59-.08,3.91.82,3.63,3.54a13,13,0,0,0,0,1.53C216.29,382.45,216.29,382.45,204.94,382.45Z" style="fill: #cda375"/>
    <path d="M347.15,269.78c10.51,0,10.3,0,10.54,10.48.1,4.19-1.16,6-5.37,5.82s-8.65.49-12.84-.14c-7.38-1.13-2.38-7.06-3.42-10.66-.62-2.15-1.45-5.89,3.37-5.53C342,269.93,344.57,269.78,347.15,269.78Z" style="fill: #cda375"/>
    <path d="M281.15,382.45c-10.5,0-10.29,0-10.56-10.51-.1-4.36.86-6.56,5.62-5.81a31.07,31.07,0,0,0,4.63,0c14.79.13,11.05-.65,11.7,11.79.2,3.73-1.18,4.89-4.69,4.53C285.64,382.27,283.39,382.45,281.15,382.45Z" style="fill: #cda375"/>
    <path d="M419.89,97.37c-11.88,0-23.75-.13-35.62.08-3.69.06-5.12-.73-5.07-4.78.13-11.09-.07-11.1,11.08-11.1,21.69,0,43.37.1,65.05-.08,4.1,0,5.74.81,5.63,5.33-.26,10.55,0,10.55-10.62,10.55Z" style="fill: #cda274"/>
    <path d="M441.58,65.23H427.66c-1,0-2.47.4-3-.12-4.15-3.87-.95-8.89-1.84-13.33-.46-2.28,1-2.9,3.11-2.89,10.48,0,21,0,31.45,0,.34,0,.78-.1,1,.07,5.06,3.51,1.51,8.67,2.42,13,.62,2.9-1.36,3.33-3.75,3.28C451.89,65.16,446.73,65.23,441.58,65.23Z" style="fill: #cda374"/>
  </g>
</svg>
