<svg id="Слой_1" data-name="Слой 1" xmlns="http://www.w3.org/2000/svg" viewBox="0 0 558 372">
  <g>
    <circle cx="279" cy="186" r="163.04" style="fill: #fff"/>
    <g>
      <path d="M418.39,139.91a2.78,2.78,0,0,0,1.32.29c.34,0,.54.08.61.27a.54.54,0,0,1-.06.41c-.42.26-1.29.72-2.61,1.4l-3.39,1.78c-.23.08-.39,0-.49-.29s0-.33.23-.54a11.13,11.13,0,0,0,3-4.51,7.09,7.09,0,0,0,0-4.91,4.56,4.56,0,0,0-2.67-2.94,4.79,4.79,0,0,0-3.37-.08,3.73,3.73,0,0,0-2.43,2.35,20.27,20.27,0,0,0-.33,6.07,23.05,23.05,0,0,1-.14,5,7.89,7.89,0,0,1-1.48,3.33,6.38,6.38,0,0,1-2.94,2.2,7.68,7.68,0,0,1-6.28-.49,9.09,9.09,0,0,1-4.63-5.2,13.16,13.16,0,0,1-.39-7.27,2.55,2.55,0,0,0-1.56-.37c-.44,0-.7,0-.79-.27s.13-.44.62-.72,2.87-1.38,7.15-3.28c.17,0,.29.1.37.31s0,.4-.25.61q-6.24,5.64-4.31,10.87a5.71,5.71,0,0,0,3.08,3.49,5.43,5.43,0,0,0,4.13.13,4.88,4.88,0,0,0,2.29-1.74,6.35,6.35,0,0,0,1.12-2.79,25.63,25.63,0,0,0,.09-4.7,17.85,17.85,0,0,1,.37-5.71,6.85,6.85,0,0,1,1.62-2.77,6.34,6.34,0,0,1,2.29-1.54,6.15,6.15,0,0,1,5.31.63,8.85,8.85,0,0,1,4,4.87,9.94,9.94,0,0,1,.58,2.77A15.25,15.25,0,0,1,418.39,139.91Z" style="fill: #1d1d1b"/>
      <path d="M425.52,173.71c0-1.05,0-1.79-.07-2.22q-.3-4.37-2.25-6.19a7.14,7.14,0,0,0-3.4-2.06c-.34-.05-.52-.21-.54-.51a.52.52,0,0,1,.17-.39,56,56,0,0,1,6.53.34c.06.65.1,1.06.11,1.23q.1,1.58.12,4.23c0,1.9.17,4.81.43,8.72s.5,6.61.68,7.81.33,2.61.47,4.53a27.3,27.3,0,0,1-3,.53c-1.19.16-2,.3-2.5.41a1.86,1.86,0,0,1-.34,0c-.33,0-.5-.1-.52-.38a.59.59,0,0,1,.15-.45,10,10,0,0,1,1.08-.85,9.36,9.36,0,0,0,2.33-2.35,6,6,0,0,0,.9-2.59,45.38,45.38,0,0,0-.06-5.65q-3.06,0-7,.23-12.94.87-15.23,1.59c-1.52.47-2.2,1.85-2.05,4.12,0,.55-.05.83-.28.85s-.42-.24-.46-.76l-.84-12.4c0-.32.09-.49.35-.51s.4.29.45.92a3.62,3.62,0,0,0,1.07,2.51,3.7,3.7,0,0,0,2.5,1q1.55,0,8.87-.45Q419.45,174.55,425.52,173.71Z" style="fill: #1d1d1b"/>
      <path d="M410.13,220.24a53.89,53.89,0,0,0,3.54,4.45q2.61,3,3.28,3.64a3.06,3.06,0,0,0,1.13.71,1.49,1.49,0,0,0,1.48-.49,3.27,3.27,0,0,0,.9-1.53c.11-.45.29-.64.52-.58s.28.46.09,1.21L419.21,235c-.17.68-.4,1-.67.91s-.3-.23-.22-.53a5,5,0,0,0,0-2.36,9.42,9.42,0,0,0-1.71-3.2l-3.75-4.57a32.85,32.85,0,0,0-3.5-4,22,22,0,0,0-4.8-1.54c-3.5-.89-5.61-1.26-6.34-1.14s-1.37,1-1.91,2.55c-.15.41-.33.59-.55.53s-.34-.33-.22-.78l1.45-5.25c.32-1.27.56-2.32.71-3.15.11-.66.19-1.09.24-1.27.12-.5.32-.71.58-.65s.27.27.19.64a2.71,2.71,0,0,0,.77,2.87,9.9,9.9,0,0,0,3.78,1.63,25.15,25.15,0,0,0,4.72.81,19.61,19.61,0,0,0,3.63-.87c2.1-.61,4.47-1.41,7.08-2.39a20.84,20.84,0,0,0,4.91-2.3,4,4,0,0,0,1.29-1.73c.16-.46.35-.67.57-.61a.29.29,0,0,1,.24.26,5.62,5.62,0,0,1-.21,1.12l-2.16,8.57a5.4,5.4,0,0,1-.33,1c-.07.11-.19.14-.36.1s-.28-.25-.23-.58c.29-1.68,0-2.63-.86-2.85a5,5,0,0,0-2.33.37C418.15,217.06,415.1,218.24,410.13,220.24Z" style="fill: #1d1d1b"/>
      <path d="M377,258.77c.32-.58.51-.91.56-1,.26-.42.75-1.18,1.47-2.27s2.16-3.4,4.32-6.92l2.68-4.38c.1-.16.43-.77,1-1.82s.91-1.68,1-1.9c.54-.87.92-1.24,1.15-1.1s.17.35,0,.7a4.44,4.44,0,0,0-.7,2.77,3.8,3.8,0,0,0,1.21,2,52.75,52.75,0,0,0,6.05,4l6.17,3.79a25.41,25.41,0,0,0,4.36,2.3,3.5,3.5,0,0,0,2.49,0,4.11,4.11,0,0,0,1.87-1.45c.26-.35.5-.45.71-.32s.22.36,0,.69c-.05.08-.14.23-.29.44-1.23,1.76-2.6,3.86-4.09,6.31l-1.81,3.06c-.19.31-.4.4-.63.26s-.21-.36,0-.69a4.75,4.75,0,0,0,.77-2.34,3,3,0,0,0-.45-1.77,8.86,8.86,0,0,0-2.3-1.77l-8.07-5.13-4.57-2.75a15.06,15.06,0,0,0-2.87-1.5,2.74,2.74,0,0,0-1.6.05,3.7,3.7,0,0,0-1.78,1.76L381.89,253a8.34,8.34,0,0,0-.29,5.65,14.16,14.16,0,0,0,2,4.68c.22.3.28.55.17.73s-.32.21-.59,0-1.38-1.07-3.16-2.61S377.25,259,377,258.77Z" style="fill: #1d1d1b"/>
      <path d="M370.67,302.43a59.31,59.31,0,0,1-5.1-3.95.33.33,0,0,1,.05-.27.45.45,0,0,1,.33-.07,16.47,16.47,0,0,0,4.27.75,8.2,8.2,0,0,0,3-.46,13.79,13.79,0,0,0,3.62-2.59,24.79,24.79,0,0,0,3.25-3.37,1.33,1.33,0,0,0-.38-.67l-.31-.4q-.93-1.33-5.69-6.65l-.6-.6c-.79.65-1.32,1.1-1.61,1.36a6.86,6.86,0,0,0-2.24,3,6.35,6.35,0,0,0,.71,3.77c.12.27.12.47,0,.59s-.42.1-.68-.19l-.48-.65a30.4,30.4,0,0,0-2.08-2.57c-1.23-1.37-2.36-2.57-3.39-3.62-.31-.35-.37-.6-.18-.76s.33-.09.59.11a5.34,5.34,0,0,0,3.63,1.36q1.71-.12,5.09-3.15-.93-1.14-3.14-3.6A28.44,28.44,0,0,0,365.5,276a2.94,2.94,0,0,0-2.31-.39,8.12,8.12,0,0,0-3.35,2.1Q354,283,355.9,288.53c.16.46.16.75,0,.89s-.34.1-.53-.12a1.71,1.71,0,0,1-.28-.46c-.11-.25-.6-1.09-1.48-2.53-.18-.3-.69-1.26-1.53-2.86l6.31-5.64c.91-.81,2.26-2,4.08-3.46s3.4-2.84,4.76-4.05a15.86,15.86,0,0,1,2.19-1.81.26.26,0,0,1,.23.09c.18.2.11.44-.22.74-1.12,1-1.58,1.95-1.4,2.86s1.29,2.5,3.34,4.78l2.78,3.07,2.55,2.93q.78.87,3.05,3.21t2.67,2.61a1.92,1.92,0,0,0,1.08.27,6.5,6.5,0,0,0,2.31-.84c.32-.16.55-.17.69,0s.07.43-.29.74L383,291.52q-1.69,1.38-8.06,7.09C372.16,301.12,370.74,302.39,370.67,302.43Z" style="fill: #1d1d1b"/>
      <path d="M309.73,303.29l1.15-.31q1.71,2.72,5,7.28l6.24,8.52a47.88,47.88,0,0,0,3.86,4.86,4.52,4.52,0,0,0,1.72,1.13,4.3,4.3,0,0,0,1.94,0c.34-.07.53,0,.59.22s-.07.41-.39.5l-10.23,2.73c-.64.17-1,.15-1-.07s.09-.49.51-.6q2.58-.69,2-2.89a10,10,0,0,0-.69-1.62,23.31,23.31,0,0,0-1.56-2.61q-1-1.53-4.32-6.22t-4.15-5.75l-1.08,12.7c-.32,3.6-.36,5.82-.14,6.67.37,1.36,1.42,1.89,3.15,1.58q.51-.09.6.24a.27.27,0,0,1-.11.33,4.57,4.57,0,0,1-1.06.36l-6.52,1.74a6.47,6.47,0,0,1-1.08.24.26.26,0,0,1-.26-.23c-.06-.24.15-.46.64-.68a3.56,3.56,0,0,0,1.91-1.65,13.92,13.92,0,0,0,.86-2.4q.36-1.37,1.09-10.37Q308.64,313.83,309.73,303.29Z" style="fill: #1d1d1b"/>
      <path d="M285.1,334.24l-3.69,0-5.65.18q-1,0-1-.39t.54-.39c1.5-.22,2.42-.77,2.78-1.67s.48-4.18.39-9.87q0-3.12-.27-7.05a35.12,35.12,0,0,0-.44-4.68,2.49,2.49,0,0,0-.79-1.24,4.21,4.21,0,0,0-2.12-.65c-.33,0-.5-.16-.51-.38s.15-.36.46-.37l5,0,4.28-.13c.47,0,.71.12.71.39s-.18.43-.56.44c-1.25,0-2,.47-2.18,1.28a49.14,49.14,0,0,0-.2,7.75q.11,6.3.28,10.2c.11,2.6.36,4.19.73,4.76a2.77,2.77,0,0,0,2.08,1.06q.57.09.57.45C285.52,334.11,285.38,334.23,285.1,334.24Z" style="fill: #1d1d1b"/>
      <path d="M248.43,331q-.75-1.89-2.75-6l-4.31-8.92-4.15-8.56q-1.14,3.48-2.65,9.13-1.14,4.23-1.35,5.71a3.85,3.85,0,0,0,.66,2.76,4.26,4.26,0,0,0,2.54,1.73q.78.21.69.54a.33.33,0,0,1-.24.24,19.19,19.19,0,0,1-2.68-.53c-1.65-.38-3-.72-4.16-1l-2.63-.73-.43-.11q-.6-.17-.51-.51c0-.2.26-.27.62-.22a5.13,5.13,0,0,0,3.12-.26,3.74,3.74,0,0,0,1.66-2.06q.57-1.47,2.91-10.21l3-10.26c.14-.52.34-.75.59-.68a.68.68,0,0,1,.25.16,19.65,19.65,0,0,1,1.22,2.44c.72,1.54,1.61,3.39,2.69,5.56s1.9,3.92,2.49,5.25q2,4.32,2.5,5.34a34,34,0,0,1,2.3,4.76q.18.67.45.75c.15,0,.29-.2.42-.71l.77-3q1.54-5.76,2.16-9.28a16,16,0,0,0,.42-4.21,4.24,4.24,0,0,0-.87-1.52,3.2,3.2,0,0,0-1.64-1.09c-.86-.23-1.25-.5-1.16-.81s.33-.29.81-.16l9.39,2.54q.66.18.57.51c-.07.26-.32.33-.75.22-1.6-.43-2.76-.36-3.48.2s-1.4,2-2,4.31l-1.68,6.89a41.12,41.12,0,0,0-1.59,7.24,9.52,9.52,0,0,0,.79,3,4.13,4.13,0,0,0,2.17,2.46c.43.17.62.34.57.53s-.38.29-1,.14Z" style="fill: #1d1d1b"/>
      <path d="M199.52,309.71c.84.62,1.45,1.06,1.81,1.3q3.63,2.42,6.28,2a7.11,7.11,0,0,0,3.7-1.44.53.53,0,0,1,.73-.12.55.55,0,0,1,.21.38,58.38,58.38,0,0,1-4.25,5l-1-.67c-.88-.58-2-1.41-3.43-2.47s-3.92-2.8-7.18-5-5.55-3.63-6.61-4.23-2.27-1.31-3.87-2.38a24.94,24.94,0,0,1,1.41-2.7c.59-1.05,1-1.79,1.19-2.24a2.38,2.38,0,0,1,.18-.3.4.4,0,0,1,.62-.17.62.62,0,0,1,.26.38,8.94,8.94,0,0,1,0,1.39,9.3,9.3,0,0,0,.45,3.27,5.88,5.88,0,0,0,1.51,2.3,44.94,44.94,0,0,0,4.52,3.39q1.89-2.42,4.06-5.67,7.18-10.8,8-13t-2-4.13c-.46-.31-.63-.56-.5-.75s.44-.19.88.1l10.35,6.88c.27.18.33.38.19.59s-.47.15-1-.2a3.66,3.66,0,0,0-2.65-.68,3.62,3.62,0,0,0-2.29,1.4q-1,1.19-5,7.3Q202.55,304.39,199.52,309.71Z" style="fill: #1d1d1b"/>
      <path d="M165.34,281.81l-.6-.72q2.12-4.69,8.18-14.91a72.9,72.9,0,0,0,4.51-8.34,3.64,3.64,0,0,0-.57-3.5c-.25-.37-.28-.64-.08-.8s.29-.1.43.08l.17.23q1.06,1.53,2.9,3.74,2.82,3.38,3.73,4.25.41.48.12.72t-.54-.15a5.76,5.76,0,0,0-2-1.45,1.47,1.47,0,0,0-1.45.35,19.78,19.78,0,0,0-2.55,3.73l-1.91,3.14,6.11,7.14q5.66-2,6.77-2.9a2,2,0,0,0,.75-2,4.57,4.57,0,0,0-.81-2c-.28-.41-.33-.7-.13-.86s.21-.07.39,0c1.3,1.72,2.1,2.75,2.38,3.09q2.18,2.61,3,3.46c.28.33.32.57.13.73s-.39.08-.67-.18c-1.15-1.06-2.71-1.3-4.7-.71s-5.43,1.78-10.33,3.6Q171.89,280,165.34,281.81Zm3.9-2.2a102.87,102.87,0,0,0,11.39-3.77c-.94-1-1.61-1.77-2-2.23l-3.55-4.43q-1.14,1.92-3,5.18C170.72,277,169.75,278.73,169.24,279.61Z" style="fill: #1d1d1b"/>
      <path d="M145.1,227.32c.07.17-.07.42-.4.75a13.89,13.89,0,0,0-3.59,6.15,9.68,9.68,0,0,0,.32,6.11,8.91,8.91,0,0,0,3.23,4,11,11,0,0,0,5.81,1.83,15.73,15.73,0,0,0,6.85-1.13,13.63,13.63,0,0,0,7.1-6.15,9.56,9.56,0,0,0,.61-8.52,7,7,0,0,0-1.51-2.41,7.64,7.64,0,0,0-2.15-1.47,5.88,5.88,0,0,0-1.78-.62,7.94,7.94,0,0,0-2.35.71c-2.05.82-3.29,1.64-3.72,2.44a3.49,3.49,0,0,0,.07,3l.25.57c.15.37.1.6-.13.69s-.52,0-.68-.43l-.36-1-1.75-4.21-2.2-5.15c-.11-.29,0-.49.22-.59s.48,0,.63.31a5.36,5.36,0,0,0,1.27,1.69,1.9,1.9,0,0,0,1.26.54,6.35,6.35,0,0,0,1.77-.51,27.51,27.51,0,0,1,4.91-1.73q.51,0,3.37,2.7a16.75,16.75,0,0,1,4.18,6,14.55,14.55,0,0,1,.24,10.81,12.39,12.39,0,0,1-7.37,7.48A13.55,13.55,0,0,1,145,246.81a15.1,15.1,0,0,1-4.28-5.86,16.53,16.53,0,0,1-.91-7.43,4.23,4.23,0,0,0-.06-1.63,1.1,1.1,0,0,0-.87-.7q-.54-.1-.63-.33c-.12-.29.18-.6.88-.94q1.67-.79,5-2.64a2.55,2.55,0,0,1,.32-.17C144.79,227,145,227.06,145.1,227.32Z" style="fill: #1d1d1b"/>
      <path d="M130.82,186a61.05,61.05,0,0,1,6.26-1.55.3.3,0,0,1,.18.21.52.52,0,0,1-.15.31,16.58,16.58,0,0,0-3.24,2.88,8.26,8.26,0,0,0-1.5,2.66,13.83,13.83,0,0,0-.22,4.44,25.58,25.58,0,0,0,.64,4.64,1.27,1.27,0,0,0,.76.11h.5c1.09.07,4,0,8.75-.35.2,0,.49,0,.85-.09,0-1-.05-1.73-.08-2.11a6.74,6.74,0,0,0-1-3.63,6.17,6.17,0,0,0-3.4-1.78c-.29-.08-.44-.2-.45-.38s.17-.39.57-.42l.81,0c1.07,0,2.17,0,3.3,0,1.84-.12,3.48-.26,5-.42.46,0,.69.08.71.33s-.14.32-.46.4a5.31,5.31,0,0,0-3.32,2q-1,1.42-.68,5.95,1.48,0,4.77-.24a27.88,27.88,0,0,0,5.39-.64,3,3,0,0,0,1.73-1.57,8.28,8.28,0,0,0,.43-3.94q-.5-7.85-6.05-9.79c-.45-.15-.69-.33-.7-.53s.13-.33.42-.35a1.44,1.44,0,0,1,.53.07c.27.06,1.23.2,2.91.4.35.05,1.41.24,3.19.57l.51,8.45c.08,1.21.14,3,.19,5.35s.13,4.43.23,6.24a16.74,16.74,0,0,1,.07,2.84.27.27,0,0,1-.21.13q-.41,0-.45-.63c-.09-1.5-.55-2.45-1.37-2.87s-2.77-.54-5.83-.34l-4.13.28-3.88.18c-.78,0-2.25.19-4.41.41a35.7,35.7,0,0,0-3.7.48,1.81,1.81,0,0,0-.88.68,6.37,6.37,0,0,0-.78,2.33c-.07.35-.2.54-.41.55s-.37-.21-.4-.68l0-4.13q0-2.19-.58-10.72C130.93,188,130.81,186,130.82,186Z" style="fill: #1d1d1b"/>
      <path d="M138.25,138.84l1.36-3.42,1.9-5.32c.24-.64.48-.91.73-.81s.25.29.17.64c-.34,1.47-.16,2.53.54,3.19s3.72,2,9.05,4c1.95.73,4.18,1.5,6.66,2.31a37.18,37.18,0,0,0,4.52,1.3,2.47,2.47,0,0,0,1.45-.29,4.16,4.16,0,0,0,1.37-1.73c.16-.3.34-.41.54-.34s.29.28.18.57l-1.79,4.69-1.44,4c-.16.45-.37.62-.62.53s-.34-.33-.2-.68c.41-1.18.27-2-.41-2.5a47.64,47.64,0,0,0-7.14-3q-5.91-2.21-9.6-3.46t-4.7-1.05a2.76,2.76,0,0,0-1.74,1.55c-.2.33-.41.45-.64.37S138.15,139.11,138.25,138.84Z" style="fill: #1d1d1b"/>
      <path d="M154.22,106c1.36,0,3.55-.16,6.58-.44l9.86-.85,9.48-.83q-2.85-2.31-7.58-5.73a58.49,58.49,0,0,0-4.87-3.29,3.85,3.85,0,0,0-2.81-.37,4.25,4.25,0,0,0-2.52,1.76c-.31.43-.56.59-.75.45a.32.32,0,0,1-.14-.31,18.81,18.81,0,0,1,1.45-2.31c.94-1.41,1.76-2.59,2.43-3.53l1.62-2.2.26-.36c.24-.33.46-.44.65-.3s.17.35,0,.66a5.16,5.16,0,0,0-.86,3,3.73,3.73,0,0,0,1.34,2.28q1.17,1.06,8.5,6.36l8.55,6.41c.43.32.57.58.42.8a.62.62,0,0,1-.24.17,22,22,0,0,1-2.71.28q-2.55.18-6.16.53t-5.79.46q-4.72.3-5.88.44a34.91,34.91,0,0,1-5.27.46c-.46,0-.75,0-.86.15s.09.34.51.65l2.57,1.8q4.83,3.48,7.9,5.31a16,16,0,0,0,3.78,1.89,4.18,4.18,0,0,0,1.73-.27,3.11,3.11,0,0,0,1.6-1.15c.52-.72.92-1,1.18-.8s.15.42-.15.82l-5.7,7.87c-.27.37-.5.49-.68.36s-.2-.42.06-.78q1.45-2,1.05-3.33t-3.31-3.41l-5.85-4a40.65,40.65,0,0,0-6.2-4.06,9.69,9.69,0,0,0-3.12-.35,4.12,4.12,0,0,0-3.07,1.17c-.31.34-.54.45-.7.34s-.14-.47.21-1Z" style="fill: #1d1d1b"/>
      <path d="M191.46,67.86c-.88.57-1.5,1-1.85,1.24q-3.54,2.55-4.07,5.17a7.07,7.07,0,0,0,0,4,.53.53,0,0,1-.57.8,57.22,57.22,0,0,1-3.15-5.74l1-.73c.85-.62,2-1.4,3.52-2.34s4-2.68,7.18-5,5.36-3.91,6.29-4.7,2-1.66,3.6-2.78a28.37,28.37,0,0,1,2,2.27c.76.93,1.32,1.56,1.67,1.91a3.2,3.2,0,0,1,.22.27c.19.26.17.47-.06.64a.57.57,0,0,1-.45.11,11.1,11.1,0,0,1-1.3-.47,9.16,9.16,0,0,0-3.22-.74,5.93,5.93,0,0,0-2.68.6,45.51,45.51,0,0,0-4.77,3c1.05,1.75,2.35,3.68,3.87,5.8q7.58,10.53,9.38,12.1t4.59-.43c.44-.33.74-.39.87-.21s0,.48-.41.79l-10.09,7.26c-.26.19-.47.18-.61,0s0-.5.54-.87a3.62,3.62,0,0,0,1.57-2.23,3.69,3.69,0,0,0-.5-2.64q-.78-1.33-5.06-7.29Q195.37,72.57,191.46,67.86Z" style="fill: #1d1d1b"/>
      <path d="M242.31,42.4a58.71,58.71,0,0,1,3.05,5.68.26.26,0,0,1-.15.22.45.45,0,0,1-.34-.06,16.11,16.11,0,0,0-3.59-2.42,8,8,0,0,0-2.95-.8,13.76,13.76,0,0,0-4.35.89,25.08,25.08,0,0,0-4.34,1.77,1.2,1.2,0,0,0,.08.76c0,.09.06.26.11.5.21,1.06,1,3.86,2.52,8.39.06.19.16.45.3.79l2-.59a6.9,6.9,0,0,0,3.27-1.87,6.27,6.27,0,0,0,.88-3.73c0-.3.09-.48.25-.53s.42.07.55.44l.17.8c.23,1,.52,2.11.87,3.18.56,1.75,1.11,3.31,1.62,4.69.15.44.1.69-.14.77s-.34-.06-.5-.35a5.3,5.3,0,0,0-2.76-2.71c-1.07-.39-3-.11-5.93.82q.39,1.43,1.41,4.56a28.26,28.26,0,0,0,2,5.05,3,3,0,0,0,2,1.29,8.08,8.08,0,0,0,3.93-.56q7.47-2.43,8-8.29c0-.48.15-.75.34-.81s.35,0,.44.32a1.51,1.51,0,0,1,.07.53c0,.27.11,1.24.33,2.92,0,.35.12,1.43.24,3.23l-8.06,2.6c-1.15.37-2.86.88-5.13,1.51s-4.26,1.22-6,1.77a15.48,15.48,0,0,1-2.73.77.3.3,0,0,1-.19-.17c-.08-.26.09-.45.51-.59,1.43-.46,2.24-1.14,2.44-2s-.17-2.82-1.12-5.74L230,61.46l-1.14-3.7c-.24-.75-.73-2.14-1.49-4.18s-1.22-3.2-1.38-3.47a1.93,1.93,0,0,0-.88-.68,6.31,6.31,0,0,0-2.45-.17c-.36,0-.57-.07-.63-.26s.11-.42.56-.56l4-1.07q2.1-.57,10.23-3.22C240.41,43,242.23,42.41,242.31,42.4Z" style="fill: #1d1d1b"/>
      <path d="M280.08,50.75A10.53,10.53,0,0,1,284,53.23a9.06,9.06,0,0,1,1.68,4.07c.5,2.42,1.15,4,2,4.86a4.46,4.46,0,0,0,3.18,1.28c.37,0,.55.15.55.39s-.2.35-.62.36a35.07,35.07,0,0,1-6.86-.26q-1.21-.36-1.86-4.11a30.69,30.69,0,0,0-1.23-5.32,5.08,5.08,0,0,0-1.94-2.56,7.33,7.33,0,0,0-4.09-.83,14.83,14.83,0,0,0-2.38.26c-.05.85-.07,1.73-.05,2.64q.08,5.19.25,6.71a3.4,3.4,0,0,0,.89,2.2,3.5,3.5,0,0,0,2.41.7c.48,0,.73.12.73.34s-.29.4-.88.41l-10,.16c-.57,0-.87-.11-.87-.38s.22-.35.68-.36a3.64,3.64,0,0,0,2.13-.5,3.08,3.08,0,0,0,.91-1.46,12.07,12.07,0,0,0,.29-3.55l-.11-4.11-.08-6.29a57.56,57.56,0,0,0-.32-6.35,3.69,3.69,0,0,0-.79-2.08,5,5,0,0,0-2.54-.8c-.28,0-.42-.14-.43-.33s.28-.33.85-.34l11.95-.46c3.3-.05,5.71.54,7.22,1.79a6,6,0,0,1,1.46,7.79,5.59,5.59,0,0,1-2.1,2.11A23.86,23.86,0,0,1,280.08,50.75Zm-7.66-.39a30.06,30.06,0,0,0,5.81-.64,6.16,6.16,0,0,0,3.27-2.1,5.48,5.48,0,0,0,1.3-3.76,5.74,5.74,0,0,0-1.58-4c-1-1.12-2.65-1.66-4.88-1.62a18.64,18.64,0,0,0-4,.55q-.15,5.56-.1,8.85C272.24,48.45,272.31,49.34,272.42,50.36Z" style="fill: #1d1d1b"/>
      <path d="M310,40.84l3.56,1,5.5,1.28c.65.16.95.37.89.63s-.26.28-.63.24c-1.49-.17-2.53.13-3.1.9s-1.55,3.92-2.92,9.44c-.5,2-1,4.32-1.54,6.89a34.42,34.42,0,0,0-.77,4.63,2.4,2.4,0,0,0,.44,1.4,4.17,4.17,0,0,0,1.88,1.18c.31.12.45.28.39.49s-.23.32-.53.24l-4.87-1.24-4.16-1c-.46-.12-.66-.31-.59-.57s.28-.36.65-.27c1.22.27,2,0,2.44-.69A49.26,49.26,0,0,0,308.81,58q1.51-6.12,2.34-9.94c.56-2.54.73-4.14.51-4.79a2.76,2.76,0,0,0-1.73-1.55c-.35-.16-.5-.35-.44-.59S309.71,40.77,310,40.84Z" style="fill: #1d1d1b"/>
      <path d="M333.17,61.53a13.45,13.45,0,0,1,4.37-4.42,14,14,0,0,1,6.85-2.35,12.67,12.67,0,0,1,7.31,1.65,12,12,0,0,1,6.12,8,13.13,13.13,0,0,1-1.27,9.75,14,14,0,0,1-8.3,6.58,12.8,12.8,0,0,1-10.6-1A12.15,12.15,0,0,1,331.54,72,13.68,13.68,0,0,1,333.17,61.53Zm4.26,1.62a24.2,24.2,0,0,0-2.42,6.4,9.08,9.08,0,0,0,.31,5.94,7.74,7.74,0,0,0,3.27,3.63,7.23,7.23,0,0,0,7.45-.28,16.82,16.82,0,0,0,6.47-6.66,15.52,15.52,0,0,0,2.09-8.76,7.36,7.36,0,0,0-3.75-6.37,6.65,6.65,0,0,0-5.29-.67,11.81,11.81,0,0,0-4.84,2.75A16.59,16.59,0,0,0,337.43,63.15Z" style="fill: #1d1d1b"/>
      <path d="M379.93,96a10.49,10.49,0,0,1,.8,4.59,9,9,0,0,1-1.9,4q-2.2,3-2.29,4.72a4.41,4.41,0,0,0,1.17,3.22c.23.28.26.51.08.67s-.4.09-.68-.22a33.91,33.91,0,0,1-4.4-5.28q-.54-1.14,1.81-4.12a32,32,0,0,0,3.14-4.48,5.13,5.13,0,0,0,.6-3.15,7.31,7.31,0,0,0-2.12-3.6,15.35,15.35,0,0,0-1.78-1.59c-.67.52-1.34,1.1-2,1.72-2.53,2.36-4.14,3.91-4.82,4.68a3.47,3.47,0,0,0-1,2.14,3.53,3.53,0,0,0,1.09,2.25c.32.37.4.62.24.77s-.49.06-.89-.38l-6.82-7.33q-.58-.63-.3-.9c.17-.16.42-.07.73.26a3.61,3.61,0,0,0,1.79,1.25,3,3,0,0,0,1.7-.3,12.13,12.13,0,0,0,2.83-2.16l3-2.83,4.61-4.27A57.53,57.53,0,0,0,379,81.13a3.71,3.71,0,0,0,1-2,5.1,5.1,0,0,0-1.11-2.42c-.16-.24-.17-.42,0-.55s.43,0,.82.41L388,85.17c2.25,2.42,3.41,4.6,3.5,6.55a6,6,0,0,1-4.81,6.3,5.79,5.79,0,0,1-3-.14A25.14,25.14,0,0,1,379.93,96Zm-4.83-6a29.52,29.52,0,0,0,4.36,3.89,6.16,6.16,0,0,0,3.74,1,5.55,5.55,0,0,0,3.67-1.55,5.79,5.79,0,0,0,1.88-3.82c.14-1.51-.54-3.08-2.06-4.71a18.55,18.55,0,0,0-3.09-2.61q-4.23,3.6-6.65,5.85C376.4,88.61,375.78,89.25,375.1,90Z" style="fill: #1d1d1b"/>
    </g>
    <path d="M279,293.22A107.22,107.22,0,1,1,386.22,186,107.34,107.34,0,0,1,279,293.22Zm0-210.84A103.62,103.62,0,1,0,382.62,186,103.75,103.75,0,0,0,279,82.38Z" style="fill: #1d1d1b"/>
    <g>
      <path d="M227.26,229.64a260.24,260.24,0,0,0,23.89-37.79c13.14-24.73,24.07-50.46,34.58-76.38,1.76-4.35,3.64-8.64,7.35-12.3,1.57,2.32,1.1,4.68,1,7-1,16.51-5.55,32-12.1,47.21-10.51,24.31-21.58,48.24-37.81,69.4a53.25,53.25,0,0,1-6.18,7c-5.88,5.37-11.64,5-16.64-1.23a45.26,45.26,0,0,1-10.05-23.15c-3.35-27.65,1.29-54.44,8.89-80.92,1-3.33,2.9-4.09,5.81-3.56a19.1,19.1,0,0,1,7.69,3.07c3.06,2.16,3.89,4.44,2.55,8.4a239,239,0,0,0-12.49,80.07C223.77,221.26,225,225.08,227.26,229.64Z" style="fill: #2a3037"/>
      <path d="M313.07,209.38c6.87-4,14.47-6.74,22.19-12.5-6.77.7-11.77,2.73-16.8,4.55-14,5-14,5.09-23.07-6.73a13.22,13.22,0,0,1,3.05-19.24c3.19-2.15,5.65-2.44,6.88,2.15a78,78,0,0,0,3.44,9.84c1,2.51,2.48,4.86,5.82,5.33.24-3.34-1.56-5.93-1.94-8.81s-.93-5.86-1-8.81c-.28-7.73-6-11.06-12.88-7.32-13.67,7.48-17.61,23.18-9,36a50.09,50.09,0,0,0,3.61,5.12c2.17,2.49,2.6,4.25-.6,6.54a57.41,57.41,0,0,0-9.16,8.55c-5.75,6.42-10.73,13.3-10.75,22.52,0,12.27,9.07,18,20.13,12.68,15.26-7.35,24.18-29,18.24-44.79C310.17,211.85,310.47,210.89,313.07,209.38ZM302.32,224.2c-.09,9.11-11,24.33-18.95,27.34-1.94.73-2.49,0-2.85-1.51-.74-3.07.41-5.81,1.65-8.52a64.64,64.64,0,0,1,14.09-19.25c1.29-1.25,2.36-4,4.31-3.06C302.35,220.05,302.5,222.7,302.32,224.2Z" style="fill: #2a3037"/>
    </g>
  </g>
</svg>
