<svg id="Слой_1" data-name="Слой 1" xmlns="http://www.w3.org/2000/svg" viewBox="0 0 558 372">
  <g>
    <path d="M332.64,228.76c-14.36-13.44-30.72-11.57-47.37-6.21-13.6,4.37-26,11.57-39.48,16.46-34.95,12.73-70.83,15.89-107.5,11-25-3.37-48.74-10.95-70.56-23.91-1.14-.68-2.23-1.43-3.32-2.19-.17-.13-.19-.48-.44-1.14a267.74,267.74,0,0,0,49.54,13.39c28.77,4.88,57.55,5,86.48,1.27,25.76-3.3,49.79-12.3,74-20.83,13-4.59,26.49-6.56,40.12-2.51C322.15,216.43,328.7,220.94,332.64,228.76Z" style="fill: #2a3037"/>
    <path d="M466,147c-13.44-3.89-26.76-7.74-40.44-10.33-43.43-8.24-85.94-5.16-127.58,9.85-12.73,4.59-25.68,8.14-39.46,5.49-9.79-1.89-16.76-6.82-20.9-15.41,18.35,16.12,36.63,8.91,54.52.94,48.49-21.58,97.47-23.75,147.17-4.68a111.19,111.19,0,0,1,20.05,9.9Z" style="fill: #2a3037"/>
    <path d="M474,188.33c2,.8,3.47-.34,5-.72,2-.51,3.82-.67,4.62,1.47.9,2.39-1.23,3.22-2.85,3.89a46.4,46.4,0,0,0-9.05,5.2c-1.28.93-3,2-2.35,4,.61,1.84,2.51,2.1,4.12,2.36a11.92,11.92,0,0,0,8.1-1.83c2.54-1.56,4.86-3.48,7.36-5.1,1.27-.82,2.42-3.18,4-1.83s1.13,3.74.12,5.53c-4.73,8.36-21.5,12.16-28.88,6.36-1.73-1.36-2.43-1.14-3.93,0-2.81,2.16-5.9,3.59-9.7,2.64-5.17-1.28-7.2-4.29-6-9.48,1-4.44,3.41-8.25,5.94-12a59.66,59.66,0,0,0,4.84-7.89c-6.65,4.14-11.79,9.89-17,15.56A105.1,105.1,0,0,0,430,207c-1.86,2.64-4.38,2.9-6.5,1.59-2.6-1.59,0-3.51.81-5,3.43-6.25,7.05-12.39,10.54-18.61.61-1.08,1.95-2.48.6-3.55s-2.43.47-3.37,1.27a98.27,98.27,0,0,0-18.86,21.76,19.3,19.3,0,0,1-2.68,3.56,4.23,4.23,0,0,1-5.49.33c-1.66-1.1-.39-2.73.17-4a175.28,175.28,0,0,1,14.75-27,8.45,8.45,0,0,1,1.51-2c2-1.58,4.68-3.28,6.67-1.59,2.21,1.87-.85,3.66-1.69,5.47-.19.39-.34.79-.73,1.74,2.74-1.9,4.9-3.6,7.25-5,2.81-1.67,5.88-4,9.12-1.42s.9,5.73-.26,9.42c3-2.65,5.46-4.86,8-7a19.91,19.91,0,0,1,10.33-4.58c2-.27,3.57,0,4.89,1.63s.42,3.24-.39,4.6c-3.68,6.11-7.51,12.13-11.24,18.21a10.8,10.8,0,0,0-1.63,3.58c-.49,2.85.52,4.25,3.6,2.89,5.07-2.23,7.8-7.71,13.24-9.51,1.27-.43,0-1.31-.27-2-1.57-4-.65-7.47,2.41-10.39a28.41,28.41,0,0,1,18.35-7.93c1.79-.11,4-.11,4.63,2,.78,2.55-.69,4.51-2.64,6-1.74,1.32-4.5,3-5.69,1-1.63-2.71-2.81-1.41-4.16-.57C478.54,183.66,475.5,185.1,474,188.33Z" style="fill: #2b3037"/>
    <path d="M115,161.91a277.65,277.65,0,0,0-29.13,45.4c-.84,1.69-1.39,3.52-3.66,3.46-1.76,0-3.85,1-5.22-.58s.08-3.42.87-5a329.08,329.08,0,0,1,34.48-53.53,20.62,20.62,0,0,1,4.15-4.29,9.68,9.68,0,0,1,9-1.06c3,1.21.54,4.23.17,6.21-2.17,11.69-4.69,23.32-7.1,35l1.17.56c5.72-8.44,11.62-16.78,17.11-25.37,3.73-5.85,7.65-11.62,10.32-18.13,1.43-3.47,4.73-3.32,7.72-2.13,3.61,1.43,1.54,3.95.55,5.74A436.46,436.46,0,0,1,116,206.87c-1.9,2.41-4.29,2.39-6.74,1.58-2.82-.94-2.16-3.23-1.75-5.44q3.49-18.6,6.88-37.24C114.6,164.49,114.79,163.2,115,161.91Z" style="fill: #2a3037"/>
    <path d="M361.91,183.31c-8,0-15.15.09-22.29-.05-2.34,0-3.58.88-4.7,2.82q-5.75,9.91-11.78,19.64c-.87,1.41-1.35,3.65-3.9,3.06-1.72-.4-3.95.8-5.13-1s.18-3.59,1.09-5.07c3.82-6.22,7.79-12.35,11.91-18.83-3.23-1-7.42-.38-8.1-5.06-.27-1.87-.4-3.66,2.2-3,9.78,2.64,14.5-3.12,18.38-10.64,1.25-2.42,3-4.6,5.09-7.82-3.89,1.64-6.76,2.77-9.86,3.14a10.56,10.56,0,0,1-7.59-1.75c-2.6-1.84-3.25-4.49-1.05-6.83,1.43-1.53,3.09-4.14,5.94-.36,2,2.62,6,1.29,8.91-.07,3.89-1.83,7.6-4.07,11.35-6.19,2.1-1.19,4.13-2.33,6.36-.26,2.47,2.29.19,3.89-.86,5.55-5.22,8.22-10.51,16.38-16,24.93,8,0,15.47-.06,22.9,0,2.56,0,3.32-1.86,4.37-3.5q7.13-11.11,14.21-22.25a13.79,13.79,0,0,1,2-2.8c2.34-2.13,5.32-1.56,7.43-.3,2.6,1.55,0,3.56-.91,4.94q-17.64,26.87-33.83,54.63c-2.22,3.79-5.66,3.08-8.7,3-2.1,0-1.34-2.18-.58-3.52,2.8-4.9,5.64-9.78,8.47-14.66C358.68,188.73,360.11,186.34,361.91,183.31Z" style="fill: #2a3037"/>
    <path d="M271.93,188.36c2,.71,3.62-.57,5.35-.92,1.93-.39,3.39-.08,4.07,1.79s-.82,2.84-2.14,3.39a43.21,43.21,0,0,0-10.32,5.94c-1,.8-2.24,1.59-2,3.21.32,1.85,1.91,2.19,3.33,2.56,3.26.84,6.31-.11,9.06-1.72,2.57-1.5,4.86-3.48,7.36-5.12,1.24-.81,2.57-3.22,3.95-1.68s1,4.15-.3,6.06c-4.4,6.51-18.55,10.62-25.79,7.57-6.26-2.63-6.89-9.64-1.08-13.85,2-1.47,4-2.08,2.09-5.38-1.63-2.85.11-5.84,2.26-8.12a27.59,27.59,0,0,1,18.55-8.57c2-.16,4.28-.19,5.16,2.07.73,1.86-.42,3.51-1.67,4.92-1.64,1.84-4.58,3.84-6,2.4-3.75-3.9-5.73-.25-8.14,1.16C274.13,185,272.22,186,271.93,188.36Z" style="fill: #2b3138"/>
    <path d="M265,174.48c-2.36-2.49-5.3-1.15-7.92-.08-3.38,1.37-6,4-9.11,6.58-.19-3.23,4.15-5.87.81-7.6-3-1.54-5.93,1-7.74,3.93-.62,1-1.25,2-1.84,3-2.79,4.71-5.67,9.37-8.31,14.16a29.17,29.17,0,0,1-6.53,7.45c-1.17,1.06-2.65,2.6-4.36,1.58-1.9-1.13-.67-3-.22-4.5,2.08-7.07,5.91-13.29,9.51-19.65.87-1.55,3.1-3.69.92-5.16-1.94-1.31-4.49-.15-6.26,1.61a10.22,10.22,0,0,0-1.79,2.4c-4.15,7.74-10.49,13.68-16.43,19.94-1.53,1.62-3.08,3.44-5.69,3.77-.6-2.44.75-4.26,1.68-6.09,2.62-5.18,5.41-10.27,8.12-15.4.94-1.78,2.2-3.75-.26-5.18s-3.83.45-4.84,2.17c-3.38,5.7-6.74,11.43-9.8,17.31-1.35,2.59-2.83,4.84-5.35,6.35-2.19,1.32-4.5,4.17-7,2.1-2.15-1.79-.4-4.75.69-6.9C186.46,190,190.1,184,193,177.74c3.13-6.75,7.38-11.16,15.46-10.11a6.34,6.34,0,0,0,2.43-.43c2.74-.77,2.83-2,1.2-4.3-2.1-2.92-5.23-1.22-7.94-2.17.63-1.12,1.24-2.1,1.74-3.13.71-1.46,3.17-3,1.18-4.52s-4.47-1.06-6.2,1.16a14.45,14.45,0,0,0-2.09,2.78c-1.78,4.18-5.05,5.23-9.24,4.84-3.45-.31-6.65.33-8.82,3.42-.65.92-2,1.89-1.35,3a3.6,3.6,0,0,0,3.49,1.48l7.61-.67c-4.9,8.6-10.18,16.28-13.63,24.93a17.47,17.47,0,0,1-6.47,8c-1.32.93-2.64,2.59-4.37,1.49s-.83-2.94-.42-4.54c1.71-6.68,5-12.61,8.45-18.5,1.23-2.13,2-5.2-1.2-4.42-4.08,1-7.46-.85-11.14-.68-11.72.55-25.43,15.27-25.24,26.93.11,7,4.7,9.82,11,6.84,4.09-1.92,7.29-5.05,10.66-8.33,1.21,10.26,5.89,12.32,14.38,6.75a3.86,3.86,0,0,0,.77-.63c.8-.89,1.41-1,2.33,0,4.18,4.93,8.87,4.19,13.73,1.07,1-.64,1.93-1.86,3.2,0,2.92,4.26,6.47,3,10,.8,3.76-2.35,6.57-5.82,10-9.28,0,2,0,3.22,0,4.49.09,4.63,2.89,7.25,7.41,6.27,6-1.31,12.52-2,15.67-8.73a15.05,15.05,0,0,1,3.1-3.88c5.33-5.44,10.72-10.83,16.08-16.23a6.62,6.62,0,0,1-.59,3.83c-.66,2-.89,4.19,1.28,5.28s3.38-.51,4.44-2.15c1.34-2.1,2.81-4.11,4.06-6.26C265.46,179.76,267.48,177.12,265,174.48ZM146,202c-.81.58-1.73,1.23-2.65.5a2.09,2.09,0,0,1-.28-1.83c2.8-8.52,14.21-21,22.39-19.72A69.59,69.59,0,0,1,146,202Z" style="fill: #2a3037"/>
    <path d="M408.58,176.85c-3.67-1.89-7.43-4.16-12.05-2.91-10.16,2.74-21.54,16.68-22,27.21-.35,7.46,5.07,11.12,12.31,7.82,11.31-5.16,18.32-14.41,22.71-25.74C410.32,181.18,411,178.07,408.58,176.85Zm-6.89,7.36c-3.93,7.56-8.41,14.67-16.42,18.66-3,1.52-4.36.47-4.22-3.18a33.31,33.31,0,0,1,16.51-19.79c1-.53,1.67-.48,2.74.63S402.49,182.67,401.69,184.21Z" style="fill: #2b3037"/>
  </g>
</svg>
