<svg id="Слой_1" data-name="Слой 1" xmlns="http://www.w3.org/2000/svg" viewBox="0 0 558 372">
  <g>
    <rect x="50" y="126.19" width="119.62" height="119.62" rx="18.39" style="fill: #2a2f36"/>
    <g>
      <path d="M88.48,161.07h19.39c12,0,21.13,3.28,21.13,14.29a12.68,12.68,0,0,1-9.86,12.46v.35c8.24,1.52,12.56,5.87,12.56,13.58,0,11.74-9.62,17-22.18,17h-21Zm18.79,23.15c6.34,0,9-2.68,9-7s-2.81-6-8.88-6H101.5v13Zm1.19,24.37c7.1,0,10.49-2.57,10.49-7.83,0-5.06-3.31-7.15-10.49-7.15h-7v15Z" style="fill: #f6f6f6"/>
      <path d="M244.27,218.74l-13-23.06c6.16-2.78,10.27-8.17,10.27-16.64,0-13.72-10.05-18-22.27-18H198.72v57.67H211.8V198h6.86l11,20.74ZM211.8,171.43h6.37c6.85,0,10.53,1.91,10.53,7.61s-3.68,8.6-10.53,8.6H211.8Z" style="fill: #1d1d1b"/>
      <path d="M319.58,218.74h13.84l-18-57.67H299.81l-18,57.67h13.36L298.73,205h17.36Zm-18.24-23.88,1.36-5.32c1.47-5.75,3.07-12.51,4.48-18.6h.35c1.39,6.09,3.15,12.85,4.61,18.6l1.35,5.32Z" style="fill: #1d1d1b"/>
      <path d="M375.45,161.07h13.37L401,189.74l4.94,12.68h.3c-.58-6.08-1.8-14.16-1.8-21V161.07h12.44v57.67H403.46L391.33,190l-4.94-12.61h-.3c.58,6.37,1.8,14.1,1.8,20.88v20.46H375.45Z" style="fill: #1d1d1b"/>
      <path d="M464.33,161.07h15.93c16.74,0,27.74,8.76,27.74,28.57s-11,29.1-27,29.1H464.33Zm15.21,47.16c9,0,15.08-4.79,15.08-18.59s-6.11-18.06-15.08-18.06h-2.16v36.65Z" style="fill: #1d1d1b"/>
    </g>
  </g>
</svg>
