<svg id="Слой_1" data-name="Слой 1" xmlns="http://www.w3.org/2000/svg" viewBox="0 0 558 372">
  <g>
    <path d="M469.76,171.53c14.66,11.81,28.11,22.68,41.63,33.48a5.15,5.15,0,0,1,2.16,4.49c-.06,14.6-.1,29.19,0,43.79,0,2.79-.73,3.72-3.62,3.68-12.22-.15-24.46-.1-36.69,0-2.31,0-3.57-.34-3.56-3.16C469.8,226.84,469.76,199.9,469.76,171.53Z" style="fill: #1d1d1b"/>
    <path d="M412.06,171.53c14.66,11.81,28.11,22.68,41.63,33.48a5.18,5.18,0,0,1,2.17,4.49c-.07,14.6-.1,29.19,0,43.79,0,2.79-.72,3.72-3.61,3.68-12.23-.15-24.46-.1-36.69,0-2.32,0-3.58-.34-3.57-3.16C412.1,226.84,412.06,199.9,412.06,171.53Z" style="fill: #1d1d1b"/>
    <g>
      <path d="M54.82,116.55v18.27l.08,1.88a3.41,3.41,0,0,0,.64,1.89,2.55,2.55,0,0,0,1.74.8l2.74.2v.62H48.75v-.62c.4,0,.82-.05,1.28-.06a13.07,13.07,0,0,0,1.66-.16,2.34,2.34,0,0,0,1.54-.8,3.31,3.31,0,0,0,.69-1.87l.07-1.88V116.67l-.07-1.8a4.05,4.05,0,0,0-.85-1.56,2.26,2.26,0,0,0-1.38-.75c-.54-.07-1.07-.12-1.6-.15s-.92,0-1.18-.08v-.63H63.4l6.57,17,5.92-17H90v.63h-.9a15,15,0,0,0-1.63.16,2.73,2.73,0,0,0-1.7.66,3,3,0,0,0-.58,1.76l-.08,1.8v18.54l.08,1.8a3.25,3.25,0,0,0,.52,1.74,2.56,2.56,0,0,0,1.63.64l2,.16v.62H71.44v-.62l1.8-.12a2.76,2.76,0,0,0,1.64-.58,3.25,3.25,0,0,0,.51-1.77l.08-1.79V120.82q0-1.21.09-2.88c.07-1.11.14-2.14.22-3.11h-.24l-1.6,5L67,140.21H64.59l-9.54-23.66Z" style="fill: #1d1d1b"/>
      <path d="M114.42,131a8.8,8.8,0,0,1-3.15,6.9,10.88,10.88,0,0,1-7.41,2.76,10.76,10.76,0,0,1-7.53-2.76,9.34,9.34,0,0,1,0-13.81,11.55,11.55,0,0,1,14.94,0A8.86,8.86,0,0,1,114.42,131Zm-7.78,0c0-.37,0-1.1-.08-2.19s-.08-1.75-.08-2a8.16,8.16,0,0,0-.65-3.48,2.12,2.12,0,0,0-2-1.37,2.1,2.1,0,0,0-1.92,1.43,8.09,8.09,0,0,0-.66,3.42c0,.5,0,1.1-.06,1.82s-.07,1.49-.1,2.33c0,.36,0,1.11.08,2.25s.08,1.79.08,2a8.16,8.16,0,0,0,.64,3.48,2.08,2.08,0,0,0,3.93,0,7.9,7.9,0,0,0,.67-3.44c0-.52,0-1.14,0-1.86S106.58,131.77,106.64,130.91Z" style="fill: #1d1d1b"/>
      <path d="M130.92,121.56v-5l-.08-1.8a2.76,2.76,0,0,0-.38-1.72,2.81,2.81,0,0,0-1.67-.58l-1.82-.12v-.63h11.5v24.21l0,1.61a2.17,2.17,0,0,0,.37,1.46,2.23,2.23,0,0,0,1.43.53l1.25.08v.62H131v-2a5.58,5.58,0,0,1-1.39,1.56,6,6,0,0,1-3.62.79,7.84,7.84,0,0,1-6.1-2.62,10.31,10.31,0,0,1-2.34-7.12,10,10,0,0,1,2.34-7,7.81,7.81,0,0,1,6.1-2.62c1.83,0,3,.24,3.64.74a5.25,5.25,0,0,1,1.33,1.56Zm-.11,2.82a2.19,2.19,0,0,0-.87-1.49,2.69,2.69,0,0,0-1.64-.51,2,2,0,0,0-1.82,1.16,7.57,7.57,0,0,0-.78,2.62c-.12,1-.19,1.86-.21,2.66s0,1.53,0,2.2v1.76c0,.5.06,1.36.17,2.59a8.52,8.52,0,0,0,.78,3,2,2,0,0,0,1.86,1.17,2.27,2.27,0,0,0,2.51-2.07c0-.6.09-1.67.11-3.19s0-2.67,0-3.42v-3.6C130.92,126.18,130.88,125.21,130.81,124.38Z" style="fill: #1d1d1b"/>
      <path d="M163.62,134.35a9.42,9.42,0,0,1-3.53,4.59,9.88,9.88,0,0,1-5.72,1.67,11.23,11.23,0,0,1-7.6-2.57,9.66,9.66,0,0,1,.09-14,10.81,10.81,0,0,1,7.39-2.71c3,0,5.3.84,6.9,2.54a8.75,8.75,0,0,1,2.39,6.22h-12a20.21,20.21,0,0,0,.21,2.87,11.39,11.39,0,0,0,.82,2.84,5.48,5.48,0,0,0,1.71,2.21,4.46,4.46,0,0,0,2.78.84,5.21,5.21,0,0,0,3.79-1.35,9,9,0,0,0,2.15-3.38Zm-6.93-5.09c0-.28,0-.62-.05-1s0-.89,0-1.49a8.73,8.73,0,0,0-.59-3.62,2,2,0,0,0-2-1.23,1.74,1.74,0,0,0-1.73,1.19,12.93,12.93,0,0,0-.68,3.66l-.08,2.5Z" style="fill: #1d1d1b"/>
      <path d="M166.12,140.21v-.62l1,0c.76-.08,1.22-.26,1.37-.55a4.58,4.58,0,0,0,.24-1.88l0-1.79V126l0-1.6a5.91,5.91,0,0,0-.24-1.41c-.1-.32-.57-.51-1.4-.59l-1-.08v-.62h10.17V125a13.76,13.76,0,0,1,1.15-2.11c.59-.94,1.95-1.41,4.09-1.41a4.37,4.37,0,0,1,3.19,1.31,4.27,4.27,0,0,1,1.31,3.11,4,4,0,0,1-1.24,3,4.17,4.17,0,0,1-3,1.2,3.57,3.57,0,0,1-2.56-1,3.19,3.19,0,0,1-1.07-2.37,4.37,4.37,0,0,1,.35-1.79q.39-.75.78-1.53a.52.52,0,0,0-.39-.27,2.1,2.1,0,0,0-1.76,1.21,4.33,4.33,0,0,0-.74,2.27v9l0,2a2.81,2.81,0,0,0,.27,1.48q.27.39,1.35.51l1.16.08v.62Z" style="fill: #1d1d1b"/>
      <path d="M203.35,127.35l0-1.61c0-2-.71-3-2.13-3a2.12,2.12,0,0,0-1.92.86,9.21,9.21,0,0,0-.91,1.76v10l0,1.79a4.29,4.29,0,0,0,.3,2c.19.29.76.43,1.72.43v.62H188.22v-.62l.93,0c.76-.08,1.22-.26,1.37-.55a4.58,4.58,0,0,0,.24-1.88l0-1.79V126l0-1.6a6.47,6.47,0,0,0-.24-1.41c-.1-.32-.57-.51-1.4-.59l-.9-.08v-.62h10v2.93a6.54,6.54,0,0,1,1.54-2.21q1.13-1.11,4.32-1.11a7.69,7.69,0,0,1,4.82,1.56,4.57,4.57,0,0,1,2,3.68v8.8l0,1.79a4.88,4.88,0,0,0,.23,1.86c.16.3.61.49,1.37.57l.86,0v.62H201.29v-.62q1.4,0,1.71-.45a4.11,4.11,0,0,0,.31-2l0-1.79Z" style="fill: #1d1d1b"/>
    </g>
    <g>
      <path d="M107.44,215H83.13v28.88l.22,5.61c0,2.68.41,4.49,1.25,5.42s2.42,1.57,4.74,1.89l3.93.37v1.95H44.64v-1.95l5.45-.49a6.79,6.79,0,0,0,4.42-2.07q1.25-1.59,1.58-5.37l.22-5.6V185.71l-.22-5.61q-.33-3.9-1.47-5.42t-4.53-2l-5.67-.48v-2H93.27v2l-3.93.36c-2.32.25-3.91.88-4.74,1.89s-1.25,2.83-1.25,5.43l-.22,5.6v26.81h24.31V185.46l-.22-5.6c-.21-2.69-.7-4.49-1.47-5.43s-2.27-1.56-4.52-1.89l-3.93-.36v-2h48.85v2l-5.67.48a6.74,6.74,0,0,0-4.42,2.08q-1.25,1.57-1.58,5.36l-.22,5.61V243.6l.22,5.6c.22,2.61.71,4.41,1.47,5.43s2.27,1.68,4.53,2l5.45.49v1.95H97.3v-1.95l3.93-.37q3.48-.48,4.58-1.83c.72-.89,1.2-2.72,1.41-5.48l.22-5.61Z" style="fill: #1d1d1b"/>
      <path d="M217.89,230.19a28.88,28.88,0,0,1-8.78,21.51,28.57,28.57,0,0,1-20.66,8.6,28.25,28.25,0,0,1-21-8.6Q159,243.11,159,230.19t8.56-21.51a29.61,29.61,0,0,1,41.65-.06Q217.89,217.16,217.89,230.19Zm-21.7-.12c0-1.14-.07-3.41-.22-6.83s-.21-5.44-.21-6.09A28.13,28.13,0,0,0,194,206.3q-1.8-4.26-5.62-4.26-3.48,0-5.34,4.45a27.56,27.56,0,0,0-1.85,10.66c0,1.54-.06,3.43-.17,5.67s-.2,4.65-.27,7.25c0,1.14.07,3.47.22,7s.22,5.58.22,6.15a28.09,28.09,0,0,0,1.8,10.85c1.19,2.84,3,4.26,5.5,4.26s4.22-1.46,5.45-4.38a27.5,27.5,0,0,0,1.86-10.73c0-1.62,0-3.55.11-5.79S196.05,232.75,196.19,230.07Z" style="fill: #1d1d1b"/>
      <path d="M329.65,259.08H296.76v-1.95c2.53,0,4-.45,4.49-1.34s.7-3,.7-6.34l.11-5.61V219.22l-.11-5q0-5.24-1.13-7.55a4.14,4.14,0,0,0-4.06-2.32,6.45,6.45,0,0,0-4.16,2q-2.21,2-3,7.86v29.62l.11,5.61a28.23,28.23,0,0,0,.38,5.6q.38,1.71,4.16,2.08v1.95h-31v-1.95c2.45,0,3.93-.45,4.43-1.34s.76-3,.76-6.34l.11-5.61V219.22l-.11-5q0-5.24-1.14-7.55a4.11,4.11,0,0,0-4-2.32c-2.45,0-4.12.9-5,2.68a28.75,28.75,0,0,0-2.11,5.49v31.32l.11,5.61a29.24,29.24,0,0,0,.37,5.6q.39,1.71,4.17,2.08v1.95H228.14v-1.95l2.4-.13c2.1-.24,3.38-.81,3.81-1.7s.66-2.84.66-5.85l.11-5.61V214.71l-.11-5a22.58,22.58,0,0,0-.66-4.39c-.29-1-1.6-1.59-3.92-1.83l-2.51-.24v-1.95h27.8v9.14a19.42,19.42,0,0,1,3.87-6.89q2.9-3.47,11.72-3.47A19.43,19.43,0,0,1,281.94,203a16.88,16.88,0,0,1,6.71,8.59,37.55,37.55,0,0,1,2.89-6.82q2.34-4.64,13.25-4.63a19.21,19.21,0,0,1,12.86,4.63,14.94,14.94,0,0,1,5.45,11.94v27.18l.11,5.61q0,4.63.6,5.85c.4.81,1.69,1.38,3.87,1.7l2,.13Z" style="fill: #1d1d1b"/>
      <path d="M394.19,240.79a29.07,29.07,0,0,1-9.83,14.32,25.48,25.48,0,0,1-15.95,5.19q-12.9,0-21.2-8t-8.3-22.12q0-13.16,8.58-21.63a28.25,28.25,0,0,1,20.59-8.47q12.57,0,19.23,7.92T394,227.39H360.5a68.91,68.91,0,0,0,.6,9,36.75,36.75,0,0,0,2.27,8.83,17.06,17.06,0,0,0,4.76,6.89,11.54,11.54,0,0,0,7.74,2.62c4.47,0,8-1.4,10.59-4.21a28.13,28.13,0,0,0,6-10.54ZM374.89,225c-.07-.89-.12-1.95-.16-3.17s-.05-2.76-.05-4.63q0-7.44-1.63-11.27a5.7,5.7,0,0,0-5.62-3.84q-3.46,0-4.82,3.71a45.11,45.11,0,0,0-1.89,11.4l-.22,7.8Z" style="fill: #1d1d1b"/>
    </g>
  </g>
</svg>
