<svg id="Слой_1" data-name="Слой 1" xmlns="http://www.w3.org/2000/svg" viewBox="0 0 558 372">
  <g>
    <g>
      <path d="M97.38,157c0-13.15.09-26.3-.06-39.45,0-3.12.62-4.34,4.08-4.3,14.49.2,29,.16,43.46,0,3,0,4,.63,4,3.83q-.18,40.2,0,80.39c0,2.77-.67,3.67-3.55,3.64q-22.23-.21-44.46,0c-2.93,0-3.55-1-3.52-3.69C97.46,184,97.38,170.53,97.38,157Z" style="fill: #2a3037"/>
      <path d="M409.63,157.53c0-13.32.09-26.65-.07-40,0-3.11.57-4.35,4-4.27,10,.25,20,.18,30,0,2.87,0,4.07.47,4.05,3.77q-.21,40.22,0,80.44c0,2.79-.68,3.69-3.57,3.65q-15.49-.27-31,0c-3,0-3.51-1-3.49-3.68C409.7,184.17,409.63,170.85,409.63,157.53Z" style="fill: #2a3037"/>
      <path d="M315.7,157.1c0-13.3.1-26.61-.07-39.91,0-3.11.89-3.94,3.94-3.88q13.95.28,27.93,0c3.17-.07,3.9,1.07,3.89,4q-.15,39.9,0,79.81c0,2.91-.51,4.11-3.77,4-9.48-.22-19-.19-28.44,0-2.92,0-3.56-1-3.53-3.68C315.77,184,315.7,170.57,315.7,157.1Z" style="fill: #2b3037"/>
      <path d="M262.71,157.08c0-13.13.13-26.27-.09-39.4-.06-3.56,1-4.47,4.46-4.38,9,.23,18,.25,26.94,0,3.63-.1,4.4,1.19,4.39,4.56q-.2,39.66,0,79.32c0,2.92-.56,4.09-3.79,4-9.48-.22-19-.19-28.44,0-2.94,0-3.54-1-3.52-3.69C262.78,184,262.71,170.55,262.71,157.08Z" style="fill: #2b3037"/>
      <path d="M206.18,157.09c0-13,.11-26-.08-38.92,0-3.51.59-5,4.58-4.89,10.14.29,20.29.19,30.44,0,2.94,0,4.07.68,4.06,3.85q-.17,40.17,0,80.34c0,2.77-.65,3.71-3.55,3.67q-16-.26-32,0c-2.9,0-3.58-.9-3.56-3.67C206.25,184,206.18,170.56,206.18,157.09Z" style="fill: #2b3138"/>
      <path d="M368.7,157.1c0-13.14.13-26.28-.09-39.42-.06-3.56,1-4.58,4.47-4.38a136.75,136.75,0,0,0,14.46,0c3.28-.16,4.66.58,4.64,4.29q-.23,39.93,0,79.84c0,2.69-.5,3.85-3.49,3.73-5.49-.24-11-.23-16.47,0-2.9.11-3.58-.91-3.55-3.66C368.77,184.05,368.7,170.57,368.7,157.1Z" style="fill: #2b3138"/>
      <path d="M188.65,157.37c0,13.31-.1,26.63.07,39.95,0,3.06-.7,4-3.83,3.86a138.62,138.62,0,0,0-15,0c-3,.16-3.47-1.1-3.46-3.74q.13-40.2,0-80.41c0-2.75.66-3.85,3.6-3.71,4.82.22,9.66.24,14.48,0,3.2-.16,4.25.72,4.2,4.1C188.53,130.73,188.65,144.05,188.65,157.37Z" style="fill: #2a3037"/>
      <path d="M126.91,185.35c-11.49.19-20-5.21-24-15.2-4.21-10.65-1-23.94,7.52-31.47,7-6.17,19.41-7.05,28.57-2,3.37,1.85,6.16,8,5.27,11.37-.37,1.4-1.5,1-2.35,1.22-1.24.31-2.54.2-2.6-1.38-.19-5.74-3.69-8.08-8.81-8.84-6.31-.92-12.26-.44-17.17,4.33-6.57,6.37-8.23,19.45-3.49,27.82,4.36,7.68,13.73,11,23.55,8.5,2.9-.73,4.79-2,5.05-5.15.16-2,.16-4.07,3.3-3.6,3.64.54,1.54,3,1.62,4.6.24,4.94-2.65,7.37-7.17,8.56A44.77,44.77,0,0,1,126.91,185.35Z" style="fill: #fefefe"/>
      <path d="M413.46,168.65c0-15.66,11.93-23.38,25.46-17.32,4.34,1.94,3.43,5.62,3.82,8.87.17,1.42-1.59,1.39-2.7,1.53a1.85,1.85,0,0,1-2.36-1.88c-.29-5-4-5.56-7.77-5.75-4.2-.22-7.41,1.39-9.17,5.45A20.56,20.56,0,0,0,420,173.7a9.25,9.25,0,0,0,9.19,7.1c4.42.12,7.85-1.87,9.08-6.27.72-2.54,1.83-2.58,3.92-1.93,2.71.83,1.51,2.52,1,3.92-2.42,6.47-8.47,9.57-16.7,8.66-6.58-.72-11.67-5.75-12.74-12.7C413.5,171,413.52,169.49,413.46,168.65Z" style="fill: #fdfdfe"/>
      <path d="M333.51,185.3a30.48,30.48,0,0,1-8.77-1.15c-4.95-1.59-6.16-4.22-4.11-8.89a1.52,1.52,0,0,1,1.86-1c1.17.1,2.77.19,2.5,1.7-.82,4.56,2.76,4.22,5.25,4.79a13.26,13.26,0,0,0,8.72-1.26,4.62,4.62,0,0,0,2.83-4.79,4,4,0,0,0-3.11-4c-3.66-1-7.41-1.72-11.08-2.73-4.12-1.13-7.18-3.19-7.31-8.14s2.23-7.76,6.64-9.33c5.48-1.94,10.8-1.16,16,1.05,2.17.92,3.83,7,2.55,8.72-.69.93-1.76.75-2.73.77-1.4,0-1.37-1.17-1.69-2.06-1.66-4.77-9.22-6.82-13.19-3.58a4.47,4.47,0,0,0,.94,7.73c2.87,1.41,6.08,1.56,9.16,2.21,6.78,1.43,9.76,4.48,9.59,9.51s-3.94,8.94-10,10.12A29.27,29.27,0,0,1,333.51,185.3Z" style="fill: #fdfdfe"/>
      <path d="M280.66,185.29a29.86,29.86,0,0,1-9-1.16c-4.8-1.54-6.13-4.54-4-8.93.5-1,1.16-1,1.95-.95,1.18.09,2.68.24,2.39,1.82-.77,4.21,2.53,4,4.9,4.63a13,13,0,0,0,7.37-.55c2.5-.83,4.51-2,4.52-5.13s-2.09-4.29-4.63-4.93c-3.53-.89-7.13-1.52-10.63-2.52s-6.06-3.25-6.21-7.39,1.24-7.37,5.34-9.16c5.92-2.59,11.67-1.87,17.35.58,2.11.9,3.75,7.16,2.33,8.7a4.13,4.13,0,0,1-2.22.72c-1.66.27-1.75-1.06-2.11-2.16-1.6-4.86-10-6.74-13.58-3.05-2.29,2.33-1.64,5.83,1.46,7.33,2.88,1.4,6.09,1.54,9.16,2.21,6.61,1.43,9.43,4.2,9.51,9.07.07,5.07-3.53,9.08-9.6,10.44A27.18,27.18,0,0,1,280.66,185.29Z" style="fill: #fdfdfe"/>
      <path d="M232.2,178.92c-4.89,5.87-10.34,8-17.15,5.12-3.76-1.61-4.94-4.74-4.9-8.47s1.26-6.87,5-8.39a29.26,29.26,0,0,1,14.17-2c2.87.29,3.34-1,3.14-3.43-.56-6.85-7.7-10.36-13.63-6.8-1.69,1-1.27,2.59-1.7,3.88-.56,1.67-1.2,2.48-3.09,2.26-2.1-.24-1.54-1.57-1.6-2.88-.21-4.32,1.68-6.92,5.93-7.82,3.25-.69,6.49-1.37,9.86-.78,6.42,1.13,9.32,4.32,9.43,10.77.09,5.32,0,10.65,0,16,0,2.45.24,4.83,3.61,4.75,1.2,0,1.91.38,1.81,1.71s-.74,1.94-2.09,2.3C236.63,186.27,233.91,184.58,232.2,178.92Z" style="fill: #fefefe"/>
      <path d="M383.63,165.07c0,3.17.06,6.33,0,9.49s-.65,6.53,4.48,5.62c1.74-.31,1.56,1.23,1.59,2.38.05,1.36-.39,2.23-1.94,2.22-4.5,0-9,0-13.48,0-1.55,0-1.9-.94-1.95-2.27-.06-1.62.48-2.66,2.25-2.35,3.85.66,3.84-1.69,3.79-4.44-.11-5.65-.14-11.32,0-17,.07-2.75-.26-4.63-3.68-4.16-1.73.24-2.83-.37-2.81-2.46,0-2.49,1.77-1.9,3.15-2,8.6-.48,8.6-.47,8.6,8Z" style="fill: #fdfcfd"/>
      <path d="M380.16,141.12c-3.58.47-2.26-2.23-2.54-3.93-.48-2.89,1.15-3.09,3.47-3.12,4,0,2.22,2.8,2.52,4.54C384.13,141.6,382,141.17,380.16,141.12Z" style="fill: #fbfbfb"/>
      <path d="M180.4,156.06c0,6.81,0,13.62,0,20.43,0,2.16-.1,4,3,3.64,1.74-.23,3.29-.1,3.2,2.46-.1,2.72-2,2.17-3.52,2.19-3.82.05-7.65,0-11.47,0-1.62,0-2.89-.07-2.92-2.29s1-2.7,2.73-2.39c3.69.64,3.43-1.72,3.43-4.16-.05-12-.09-23.93,0-35.89,0-2.86-.18-4.92-3.86-4.3-1.69.29-2.3-.67-2.3-2.34s.86-2.34,2.45-2.23a8.32,8.32,0,0,0,1,0c8.28-.33,8.28-.33,8.28,7.91Z" style="fill: #f8f8f9"/>
      <path d="M222.73,181.07c-3.5-.38-6.51-1.11-7-5.15-.48-3.87,1.62-5.92,5.12-6.68a19.8,19.8,0,0,1,5.43-.41c2,.14,5-.9,5.79,1.25,1,2.66-.29,5.5-2.47,7.63A12.73,12.73,0,0,1,222.73,181.07Z" style="fill: #2d3239"/>
    </g>
    <g>
      <path d="M101.06,248.72v-23.1h6.54q6.12,0,9.18,2.81t3,8.45a11.36,11.36,0,0,1-3.39,8.6,12.57,12.57,0,0,1-9.06,3.24ZM104,228.23v17.88h3.37a9.49,9.49,0,0,0,6.9-2.39,9,9,0,0,0,2.48-6.77c0-2.9-.77-5.07-2.32-6.53s-3.84-2.19-6.92-2.19Z" style="fill: #1d1d1b"/>
      <path d="M146.3,248.72H133.91v-23.1h11.87v2.61h-8.94v7.44h8.28v2.61h-8.28v7.83h9.46Z" style="fill: #1d1d1b"/>
      <path d="M158.39,246.92l1.42-2.24a10.74,10.74,0,0,0,2.85,1.4,11,11,0,0,0,3.24.44,5.66,5.66,0,0,0,3.4-1,3.27,3.27,0,0,0,1.32-2.8,3.33,3.33,0,0,0-1.11-2.63,11.52,11.52,0,0,0-3.68-1.89,13.75,13.75,0,0,1-4.9-2.63,5.18,5.18,0,0,1-1.57-4,5.83,5.83,0,0,1,2-4.62,8,8,0,0,1,5.45-1.79,13.34,13.34,0,0,1,3.1.36,14,14,0,0,1,3.06,1.14l-1.19,2.34a11.64,11.64,0,0,0-2.52-.95,10.62,10.62,0,0,0-2.64-.31,5,5,0,0,0-3.21.94,3.18,3.18,0,0,0-1.17,2.62,2.85,2.85,0,0,0,1.08,2.34,13,13,0,0,0,3.62,1.77,13,13,0,0,1,5,2.77,5.81,5.81,0,0,1,1.52,4.22,6.19,6.19,0,0,1-2.05,4.75,8.25,8.25,0,0,1-5.8,1.89,13.55,13.55,0,0,1-3.84-.53A13.12,13.12,0,0,1,158.39,246.92Z" style="fill: #1d1d1b"/>
      <path d="M190.54,248.72h-2.93v-23.1h2.93Z" style="fill: #1d1d1b"/>
      <path d="M223.58,247.13a15.16,15.16,0,0,1-3.69,1.48,16.65,16.65,0,0,1-4.11.5,10.89,10.89,0,0,1-8.13-3.05c-2-2-3-4.89-3-8.58a12,12,0,0,1,3.35-8.92,11.7,11.7,0,0,1,8.63-3.33,14.48,14.48,0,0,1,7,1.64l-1.18,2.37a11.7,11.7,0,0,0-2.79-1.06,12.81,12.81,0,0,0-3-.32,8.68,8.68,0,0,0-6.37,2.46,9.38,9.38,0,0,0-2.49,7q0,4.56,2.2,6.89a8.08,8.08,0,0,0,6.18,2.33,11.13,11.13,0,0,0,2.44-.26,8.19,8.19,0,0,0,2.08-.77v-6.29h-5v-2.61h8Z" style="fill: #1d1d1b"/>
      <path d="M257.28,248.72h-3.49l-11.67-18c-.16-.26-.31-.51-.44-.76a6.18,6.18,0,0,1-.35-.74h-.09a11.22,11.22,0,0,1,.09,1.19c0,.54,0,1.21,0,2v16.32h-2.9v-23.1h3.71l11.34,17.74q.36.55.6,1a6.81,6.81,0,0,1,.35.62h.07a9.52,9.52,0,0,1-.12-1.33c0-.57,0-1.25,0-2V225.62h2.91Z" style="fill: #1d1d1b"/>
      <path d="M289.3,246.92l1.42-2.24a10.74,10.74,0,0,0,2.85,1.4,11,11,0,0,0,3.24.44,5.63,5.63,0,0,0,3.4-1,3.27,3.27,0,0,0,1.32-2.8,3.33,3.33,0,0,0-1.11-2.63,11.52,11.52,0,0,0-3.68-1.89,13.6,13.6,0,0,1-4.89-2.63,5.15,5.15,0,0,1-1.58-4,5.83,5.83,0,0,1,2.05-4.62,8,8,0,0,1,5.46-1.79,13.32,13.32,0,0,1,3.09.36,14,14,0,0,1,3.06,1.14l-1.19,2.34a11.64,11.64,0,0,0-2.52-.95,10.62,10.62,0,0,0-2.64-.31,5,5,0,0,0-3.2.94,3.16,3.16,0,0,0-1.18,2.62,2.85,2.85,0,0,0,1.08,2.34,13,13,0,0,0,3.62,1.77,12.88,12.88,0,0,1,5,2.77,5.77,5.77,0,0,1,1.52,4.22,6.19,6.19,0,0,1-2,4.75,8.24,8.24,0,0,1-5.79,1.89,13.57,13.57,0,0,1-3.85-.53A13.27,13.27,0,0,1,289.3,246.92Z" style="fill: #1d1d1b"/>
      <path d="M332.39,228.23h-6.67v20.49h-2.93V228.23h-6.65v-2.61h16.25Z" style="fill: #1d1d1b"/>
      <path d="M362.68,239.3c0,3.27-.74,5.73-2.21,7.36s-3.69,2.45-6.65,2.45-5-.78-6.38-2.35-2.13-3.93-2.13-7.09v-14h2.93v13.9a8,8,0,0,0,1.47,5.22,5.41,5.41,0,0,0,4.38,1.74,5.24,5.24,0,0,0,4.25-1.68,7.72,7.72,0,0,0,1.41-5.05V225.62h2.93Z" style="fill: #1d1d1b"/>
      <path d="M378,248.72v-23.1h6.54q6.12,0,9.18,2.81t3.05,8.45a11.36,11.36,0,0,1-3.39,8.6,12.57,12.57,0,0,1-9.06,3.24Zm2.93-20.49v17.88h3.37a9.48,9.48,0,0,0,6.9-2.39,9,9,0,0,0,2.48-6.77c0-2.9-.77-5.07-2.31-6.53s-3.85-2.19-6.93-2.19Z" style="fill: #1d1d1b"/>
      <path d="M413.76,248.72h-2.93v-23.1h2.93Z" style="fill: #1d1d1b"/>
      <path d="M438.71,249.11a10.19,10.19,0,0,1-7.89-3.24,12,12,0,0,1-3-8.43,12.69,12.69,0,0,1,3-8.88,10.56,10.56,0,0,1,8.22-3.33,10,10,0,0,1,7.74,3.22,12.06,12.06,0,0,1,2.94,8.45q0,5.64-3,8.92A10.43,10.43,0,0,1,438.71,249.11Zm0-2.63a7.34,7.34,0,0,0,5.83-2.42,10,10,0,0,0,2.13-6.81c0-3-.69-5.29-2.07-6.93a7.1,7.1,0,0,0-5.72-2.45,7.23,7.23,0,0,0-5.75,2.57,11.54,11.54,0,0,0-.06,13.5A7.06,7.06,0,0,0,438.73,246.48Z" style="fill: #1d1d1b"/>
    </g>
  </g>
</svg>
